<?xml version="1.0" standalone="no"?>
<!DOCTYPE svg PUBLIC "-//W3C//DTD SVG 20010904//EN"
 "http://www.w3.org/TR/2001/REC-SVG-20010904/DTD/svg10.dtd">
<svg version="1.0" xmlns="http://www.w3.org/2000/svg"
 width="3000.000000pt" height="3000.000000pt" viewBox="0 0 3000.000000 3000.000000"
 preserveAspectRatio="xMidYMid meet">

<g transform="translate(0.000000,3000.000000) scale(0.100000,-0.100000)"
fill="#000000" stroke="none">
<path d="M10470 27019 c-301 -10 -490 -25 -715 -59 -266 -39 -297 -44 -460
-81 -77 -17 -156 -35 -175 -39 -69 -15 -317 -91 -405 -125 -49 -18 -101 -37
-115 -41 -55 -15 -302 -142 -418 -213 l-123 -76 693 -6 c794 -7 779 -6 1098
-93 57 -16 240 -89 275 -111 11 -7 46 -27 78 -44 94 -50 246 -168 337 -260
134 -137 213 -247 310 -437 20 -38 44 -81 53 -94 19 -28 21 -40 7 -40 -6 0
-15 12 -21 27 -6 15 -19 36 -30 46 -11 10 -17 21 -15 25 3 5 -8 16 -23 26 -15
10 -32 27 -37 36 -42 79 -57 102 -74 112 -11 7 -20 19 -20 26 0 6 -9 20 -20
29 -11 10 -20 22 -20 28 0 6 -34 45 -76 86 -42 40 -84 82 -93 92 -14 16 -32
33 -121 117 -80 75 -364 238 -480 275 -30 10 -71 24 -90 31 -50 20 -179 50
-295 70 -91 16 -232 17 -1545 18 -1468 1 -1517 0 -1605 -16 -27 -5 -77 -13
-110 -18 -33 -4 -96 -17 -140 -29 -44 -11 -88 -21 -97 -21 -10 0 -18 -4 -18
-8 0 -4 -32 -17 -71 -27 -39 -11 -73 -23 -75 -27 -3 -5 -13 -8 -23 -8 -17 0
-143 -59 -166 -78 -6 -5 -15 -7 -21 -5 -6 2 -33 -14 -60 -37 -27 -22 -56 -40
-66 -40 -9 0 -23 -7 -32 -15 -8 -8 -17 -15 -21 -15 -9 0 -99 -64 -131 -93 -16
-15 -34 -27 -41 -27 -6 0 -27 -18 -46 -40 -19 -22 -42 -40 -51 -40 -9 0 -14
-4 -11 -10 3 -5 1 -10 -5 -10 -6 0 -58 -48 -116 -107 -110 -113 -219 -254
-292 -376 -105 -177 -210 -438 -232 -579 -5 -37 -12 -73 -15 -80 -4 -13 -30
-195 -105 -743 -87 -643 -122 -898 -152 -1105 -16 -118 -36 -264 -44 -325 -21
-175 -32 -252 -54 -401 -11 -76 -23 -159 -26 -184 -6 -50 -69 -513 -109 -805
-34 -242 -51 -369 -71 -525 -9 -69 -23 -168 -31 -220 -8 -52 -25 -178 -38
-280 -13 -102 -35 -266 -49 -365 -14 -99 -44 -315 -66 -480 -39 -288 -82 -604
-151 -1100 -17 -126 -38 -277 -45 -335 -16 -132 -26 -200 -57 -425 -14 -99
-37 -268 -51 -375 -14 -107 -30 -217 -36 -245 -5 -27 -12 -77 -15 -110 -11
-99 -34 -274 -50 -380 -9 -55 -22 -152 -30 -215 -8 -63 -30 -227 -49 -365 -19
-137 -46 -338 -61 -445 -14 -107 -32 -240 -40 -295 -8 -55 -24 -167 -35 -250
-10 -82 -28 -211 -39 -285 -10 -74 -24 -180 -31 -235 -7 -55 -19 -143 -26
-195 -23 -158 -108 -777 -135 -980 -6 -47 -19 -143 -30 -215 -10 -71 -23 -166
-29 -210 -6 -44 -26 -195 -46 -335 -19 -140 -39 -291 -45 -335 -5 -44 -13
-109 -18 -145 -5 -36 -20 -144 -34 -240 -14 -96 -33 -233 -42 -305 -9 -71 -24
-173 -31 -225 -58 -384 -72 -647 -45 -830 28 -186 114 -418 236 -640 91 -163
175 -320 175 -324 0 -7 109 -189 151 -252 196 -294 545 -539 920 -644 187 -52
339 -70 647 -77 l294 -6 -7 -61 c-3 -34 -23 -189 -45 -346 -21 -157 -57 -420
-80 -585 -22 -165 -59 -430 -81 -590 -21 -159 -44 -324 -49 -365 -6 -41 -21
-154 -34 -250 -14 -96 -28 -238 -31 -315 -6 -135 -5 -145 30 -304 34 -159 78
-281 143 -406 100 -190 300 -435 502 -615 376 -336 938 -648 1595 -886 292
-106 730 -230 1015 -289 74 -15 160 -33 190 -40 30 -7 122 -24 203 -37 l149
-23 -7 -78 c-4 -42 -8 -94 -10 -115 -2 -20 -6 -59 -9 -87 -3 -27 -8 -77 -10
-110 -11 -149 -38 -376 -51 -432 -20 -83 -19 -109 6 -134 39 -39 -61 -84 1344
606 154 76 325 159 380 186 l100 49 588 1 588 0 42 -24 c23 -13 69 -39 102
-57 75 -42 110 -61 208 -117 42 -24 99 -55 125 -70 26 -14 77 -43 114 -64 36
-22 69 -39 73 -39 3 0 29 -15 58 -33 29 -18 70 -42 92 -54 22 -11 114 -62 205
-113 91 -51 194 -108 230 -128 36 -19 72 -41 81 -48 8 -8 20 -14 25 -14 5 0
47 -23 94 -50 140 -83 153 -75 179 110 11 74 25 178 30 230 20 177 58 460 62
464 2 2 2031 6 4509 9 3087 4 4543 9 4626 16 1125 100 2158 753 2690 1701 112
198 185 369 248 575 59 196 96 383 146 750 52 377 116 846 135 990 8 61 26
191 40 290 22 162 53 385 131 955 13 102 31 232 39 290 8 58 33 240 55 405 22
165 47 345 55 400 17 120 51 367 105 770 23 165 59 431 81 590 22 160 49 358
60 440 11 83 29 213 39 290 11 77 38 275 60 440 23 165 59 428 80 585 22 157
57 418 79 580 93 679 124 910 161 1180 22 157 58 420 80 585 23 165 57 413 76
551 19 139 39 287 43 330 5 44 25 192 44 329 20 138 54 387 77 555 23 168 59
433 80 590 22 157 57 420 80 585 22 165 56 417 76 560 20 143 38 280 40 305 3
25 11 92 19 150 26 185 36 254 41 286 2 17 7 56 10 85 3 30 10 86 15 124 5 39
18 144 29 235 12 91 27 208 34 260 16 111 16 139 0 133 -13 -5 -13 21 -1 33 4
4 7 34 7 67 0 49 2 57 13 48 16 -13 28 -5 20 14 -2 8 -11 11 -19 8 -12 -4 -14
5 -13 51 1 31 6 56 11 56 4 0 8 9 8 20 0 11 -4 20 -9 20 -13 0 -22 111 -15
184 6 55 10 66 25 66 11 0 19 5 19 10 0 6 -7 10 -15 10 -11 0 -14 11 -14 43 0
23 -1 54 -4 70 -2 15 0 27 4 27 5 0 9 18 9 39 0 22 5 42 13 44 9 4 9 6 0 6
-15 1 -18 67 -3 76 15 10 12 35 -5 35 -8 0 -16 10 -16 23 -3 35 0 140 4 161 2
10 -3 48 -10 85 -13 63 -23 122 -25 148 -1 7 -7 14 -14 17 -8 3 -11 11 -8 19
2 7 -1 27 -7 43 -14 34 -16 38 -27 84 -5 20 -15 47 -22 60 -8 14 -17 43 -22
65 -8 40 -10 47 -20 75 -3 8 -18 53 -33 100 -15 47 -35 103 -45 125 -9 22 -23
58 -29 80 -7 22 -26 67 -42 101 -16 33 -29 66 -29 73 0 21 -76 182 -143 302
-55 98 -167 268 -223 338 -25 31 -60 74 -77 96 -55 68 -229 238 -310 303 -104
84 -303 215 -402 264 -44 22 -91 48 -105 58 -14 10 -40 21 -57 25 -18 3 -33
12 -34 18 -2 23 -19 -59 -34 -168 -9 -60 -20 -138 -26 -172 -5 -34 -16 -113
-24 -175 -12 -99 -48 -347 -60 -418 -2 -14 -9 -63 -14 -109 -9 -81 -8 -86 14
-115 64 -85 159 -314 186 -451 23 -117 17 -396 -15 -615 -40 -282 -55 -388
-66 -470 -6 -41 -24 -172 -40 -290 -17 -118 -35 -249 -40 -290 -6 -41 -24
-174 -40 -295 -17 -121 -35 -254 -40 -295 -6 -41 -24 -172 -40 -290 -17 -118
-34 -249 -40 -290 -6 -41 -23 -172 -40 -290 -33 -243 -105 -767 -120 -880 -5
-41 -19 -138 -29 -215 -11 -77 -29 -210 -41 -295 -11 -85 -27 -200 -35 -255
-8 -55 -26 -185 -40 -290 -13 -104 -32 -237 -40 -295 -8 -58 -22 -154 -30
-215 -8 -60 -33 -240 -55 -400 -22 -159 -46 -342 -55 -405 -8 -63 -28 -214
-45 -335 -17 -121 -35 -251 -40 -290 -5 -38 -14 -101 -19 -140 -6 -38 -22
-155 -36 -260 -14 -104 -44 -320 -65 -480 -22 -159 -54 -389 -70 -510 -17
-121 -35 -251 -40 -290 -11 -78 -65 -469 -80 -585 -5 -41 -19 -138 -29 -215
-11 -77 -29 -210 -41 -295 -11 -85 -27 -200 -35 -255 -8 -55 -26 -188 -40
-295 -14 -107 -35 -256 -45 -330 -11 -74 -29 -205 -40 -290 -12 -85 -30 -218
-40 -295 -22 -160 -46 -334 -90 -655 -41 -300 -47 -347 -65 -470 -8 -58 -26
-193 -40 -300 -15 -107 -35 -256 -45 -330 -10 -74 -28 -205 -40 -290 -11 -85
-27 -200 -35 -255 -8 -55 -26 -185 -40 -290 -26 -194 -60 -445 -115 -845 -17
-124 -40 -290 -51 -370 -89 -657 -107 -781 -124 -853 -121 -519 -578 -986
-1125 -1151 -275 -82 -175 -79 -2595 -73 -1166 3 -2127 8 -2135 11 -25 10
-150 13 -150 4 0 -4 -28 -8 -62 -8 -40 0 -58 4 -49 9 8 5 -23 7 -75 4 -126 -7
-199 -7 -364 1 -177 8 -192 10 -207 19 -6 4 -65 7 -130 7 -65 0 -179 2 -253 5
-120 4 -488 12 -935 19 -82 2 -181 6 -220 11 -65 7 -108 9 -243 13 -34 1 -51
6 -47 12 4 7 -7 10 -32 9 -21 -2 -45 1 -53 6 -21 13 -98 17 -118 6 -24 -13
-96 11 -100 33 -2 9 -9 17 -15 18 -7 0 24 4 68 9 97 9 109 11 128 27 9 7 25
14 36 15 12 1 21 4 21 8 0 4 12 1 28 -6 35 -18 82 -26 96 -17 6 4 13 7 16 8 3
1 20 5 38 9 18 4 35 12 38 16 3 5 -193 9 -448 9 -451 0 -563 5 -552 22 3 5 14
6 24 3 21 -7 70 4 70 15 0 11 -86 33 -99 26 -5 -4 -12 -3 -15 2 -3 4 -26 9
-52 11 -26 1 -53 5 -58 9 -6 3 -18 5 -26 4 -11 -2 -16 6 -15 25 0 21 5 28 20
28 11 0 19 4 17 10 -3 8 25 24 55 31 7 1 19 9 27 17 8 8 41 18 73 21 156 19
163 20 152 30 -2 3 -151 8 -329 12 -179 3 -327 8 -329 10 -3 3 -6 12 -7 22 -1
9 -8 44 -14 77 -19 98 -19 115 2 130 17 12 10 14 -69 21 -48 5 -963 8 -2033 7
-2163 -1 -2656 -3 -2715 -13 -22 -4 -34 -8 -26 -9 22 -2 40 -33 41 -68 0 -17
5 -33 11 -35 7 -2 9 -22 4 -62 -6 -49 -11 -59 -34 -69 -17 -7 -159 -11 -426
-12 -369 -1 -922 8 -831 13 30 1 37 5 29 13 -7 7 -23 13 -36 14 -14 2 -46 13
-73 26 -27 12 -53 23 -59 23 -5 1 -16 7 -23 14 -7 6 -21 12 -30 12 -10 0 -30
11 -45 25 -27 26 -36 42 -16 29 6 -3 15 -1 19 6 5 7 27 12 54 12 27 -1 46 3
46 9 0 6 7 8 16 5 9 -4 23 -1 30 5 8 6 14 9 14 5 0 -3 24 3 53 14 28 11 61 21
72 22 66 5 -155 16 -350 17 -220 1 -279 8 -246 30 10 7 8 12 -9 24 -16 11 -20
21 -15 38 6 18 4 21 -9 16 -11 -5 -16 -1 -16 13 0 11 5 20 10 20 6 0 10 7 10
17 0 9 3 13 7 10 3 -4 11 -1 17 7 21 25 176 68 275 76 94 7 93 7 -59 9 -196 2
-445 10 -487 17 -33 5 -42 17 -23 29 6 4 18 24 26 44 12 31 28 44 94 80 44 23
80 39 80 35 0 -3 6 -2 12 4 7 5 29 12 48 15 88 14 165 29 169 33 5 5 -11 6
-99 9 -36 1 -101 2 -145 4 l-80 2 80 25 c193 59 515 114 790 133 83 6 179 13
215 16 36 3 2257 6 4935 7 2679 2 5534 5 6345 8 l1475 6 175 27 c96 15 195 34
220 42 25 7 86 23 135 35 222 54 579 195 797 315 198 110 425 264 574 390 157
133 421 412 522 550 163 225 285 438 374 650 128 305 179 529 258 1120 17 127
35 262 40 300 33 234 43 309 80 580 23 165 47 347 55 405 8 58 21 155 30 215
8 61 30 227 50 370 19 143 46 343 60 445 14 102 32 230 40 285 8 55 26 188 40
295 14 107 32 240 40 295 26 183 44 320 60 440 8 66 19 149 25 185 5 36 21
151 35 255 14 105 32 237 40 295 8 58 26 188 40 290 14 102 32 235 40 295 8
61 26 193 40 295 14 102 32 232 40 290 8 58 26 191 40 295 14 105 32 235 40
290 7 55 19 138 25 185 6 47 17 130 25 185 18 131 39 287 70 515 32 236 49
362 80 585 26 190 66 486 90 670 8 61 33 238 54 395 34 246 76 556 137 1010 8
63 26 192 39 285 13 94 32 229 41 300 9 72 23 173 30 225 8 52 21 145 28 205
8 61 30 229 50 375 116 848 149 1105 148 1145 -1 17 3 45 9 63 6 18 12 54 14
80 2 26 11 110 21 187 9 77 17 164 17 193 0 28 3 52 8 52 5 0 6 7 3 15 -4 8
-2 21 4 28 5 6 8 27 6 46 -2 19 0 38 6 41 11 7 3 70 -9 70 -7 0 -6 71 3 120 3
19 8 58 12 85 3 28 7 61 10 75 3 14 7 72 10 130 2 58 9 118 14 133 5 15 7 33
5 40 -9 29 -12 87 -4 87 13 0 11 34 -3 49 -11 11 -10 12 1 6 11 -6 13 -1 9 25
-3 19 -1 50 4 69 4 20 11 74 13 120 3 46 7 98 9 115 5 34 16 141 21 196 2 19
8 99 13 177 6 78 13 147 16 152 22 35 36 384 20 481 -7 41 -11 72 -19 155 -3
33 -12 92 -21 130 -47 213 -42 195 -113 410 -52 159 -60 183 -81 230 -10 22
-25 58 -35 80 -58 139 -225 433 -297 526 -129 165 -305 353 -428 457 -104 88
-324 234 -450 300 -278 145 -512 217 -885 275 -133 21 -284 29 -610 33 -1082
12 -11771 24 -12105 13z m12724 -833 c168 -33 339 -108 451 -200 132 -109 194
-197 345 -494 104 -202 141 -314 130 -397 -4 -33 -22 -89 -39 -125 -17 -36
-31 -71 -31 -78 0 -22 -32 -62 -60 -77 -24 -12 -30 -12 -60 6 l-33 20 7 92
c20 285 20 388 -3 497 -25 118 -24 113 -77 229 -104 226 -304 396 -551 470
-176 52 -61 50 -3124 51 -1564 0 -3773 2 -4909 4 -1644 2 -2088 0 -2180 -10
-123 -14 -154 -12 -68 5 29 5 62 12 73 14 11 3 2277 5 5037 6 4341 1 5026 -1
5092 -13z m-10279 -36 c-11 -5 -27 -9 -35 -9 -9 0 -8 4 5 9 11 5 27 9 35 9 9
0 8 -4 -5 -9z m-179 -55 c-11 -8 -25 -15 -30 -15 -6 1 0 7 14 15 32 19 40 18
16 0z m1841 -595 c56 -25 84 -70 72 -114 -5 -17 -12 -69 -15 -116 -3 -47 -10
-104 -15 -128 -5 -24 -18 -112 -29 -195 -10 -84 -23 -164 -29 -179 -11 -30
-72 -72 -143 -100 -44 -16 -94 -17 -760 -14 -608 2 -718 5 -748 18 -67 28 -66
27 -36 236 15 103 31 219 36 257 27 196 32 222 56 262 25 43 44 58 99 80 22 8
224 12 750 12 689 1 722 0 762 -19z m1985 -3 c20 -12 46 -35 58 -50 22 -27 22
-30 7 -85 -8 -31 -20 -97 -26 -147 -33 -264 -51 -394 -61 -426 -12 -42 -27
-57 -95 -95 -46 -26 -61 -28 -189 -33 -76 -4 -421 -6 -766 -6 -539 0 -629 2
-645 15 -15 13 -17 25 -12 91 6 70 54 430 77 574 12 75 50 131 110 161 l45 23
730 1 730 0 37 -23z m1972 2 c60 -28 81 -60 67 -102 -6 -18 -18 -93 -26 -167
-9 -74 -23 -175 -31 -225 -7 -49 -14 -105 -14 -123 0 -19 -7 -58 -16 -87 -13
-46 -21 -57 -60 -80 -97 -57 -65 -55 -876 -56 -533 -1 -752 1 -760 9 -13 13
-12 64 2 172 5 41 14 113 20 160 24 194 53 367 67 400 19 47 50 79 98 101 38
18 81 19 763 19 711 0 723 0 766 -21z m3404 -137 c83 -43 129 -95 188 -210 44
-85 49 -104 52 -172 4 -76 4 -77 -27 -99 -17 -12 -48 -25 -68 -28 -21 -3 -50
-14 -65 -25 -74 -51 -299 -122 -425 -133 -70 -7 -78 -11 -74 -42 6 -45 -66 34
-123 135 -65 116 -80 202 -50 301 40 136 144 242 289 294 38 13 72 17 145 14
84 -3 103 -7 158 -35z m987 1 c78 -40 139 -107 180 -196 60 -132 55 -178 -25
-253 -124 -117 -253 -178 -430 -205 -113 -16 -148 -27 -152 -46 -6 -31 -70 47
-121 148 -37 71 -50 109 -54 154 -13 152 81 310 230 386 79 41 118 49 222 45
78 -2 98 -7 150 -33z m-15926 -899 c64 -20 148 -46 186 -59 99 -33 294 -95
480 -154 764 -239 1168 -371 1210 -396 49 -28 76 -57 67 -71 -4 -6 -26 -21
-49 -33 -24 -12 -43 -25 -43 -30 0 -5 -8 -11 -17 -14 -10 -3 -45 -17 -78 -31
-33 -13 -116 -43 -185 -65 -69 -22 -217 -72 -330 -112 -113 -39 -270 -92 -350
-119 -225 -74 -225 -74 -262 -139 -17 -31 -48 -76 -68 -101 -20 -25 -84 -115
-141 -200 -98 -144 -140 -205 -241 -350 -21 -30 -58 -84 -81 -120 -74 -112
-176 -200 -230 -200 -9 0 -29 13 -45 29 -24 25 -30 42 -40 113 -6 45 -14 128
-17 183 -3 55 -10 143 -15 195 -5 52 -17 172 -25 265 -8 94 -20 217 -25 275
-6 58 -15 164 -20 235 -13 180 -28 353 -41 465 -6 52 -12 149 -12 215 -2 101
1 126 17 155 59 108 156 125 355 64z m11465 -937 c37 -18 96 -72 96 -90 0 -5
-13 -19 -29 -33 -23 -19 -33 -41 -45 -94 -9 -38 -16 -80 -16 -94 0 -13 -4 -26
-9 -28 -5 -1 -11 -34 -14 -73 -7 -87 -24 -177 -40 -219 -7 -17 -14 -49 -16
-70 -1 -22 -4 -42 -6 -46 -2 -4 -7 -35 -10 -71 -9 -88 -34 -229 -46 -251 -6
-12 -6 -18 1 -18 6 0 7 -6 1 -17 -10 -21 -29 -109 -37 -173 -13 -106 -33 -130
-122 -144 -24 -4 -254 -9 -510 -11 -700 -8 -893 -13 -932 -26 -19 -6 -47 -25
-62 -41 -26 -30 -26 -30 -37 -9 -9 16 -7 57 9 173 11 84 31 236 45 338 83 628
120 865 142 907 25 48 85 91 143 102 25 5 362 8 750 7 651 -2 708 -3 744 -19z
m-5746 -253 c133 -27 218 -64 322 -140 74 -54 206 -204 180 -204 -10 0 -9 -4
0 -15 7 -9 10 -18 6 -22 -3 -3 -6 -2 -6 4 0 6 -8 14 -17 17 -11 5 -29 -7 -57
-36 -23 -24 -57 -54 -76 -68 -19 -13 -44 -33 -55 -43 -11 -10 -28 -16 -37 -14
-9 3 -25 -1 -35 -7 -10 -7 -34 -13 -53 -14 -19 -2 -36 -7 -38 -12 -2 -6 -10
-10 -17 -10 -7 0 -15 -4 -17 -10 -4 -13 -152 -50 -201 -50 -22 0 -51 -8 -65
-18 -15 -11 -55 -27 -89 -37 -35 -10 -63 -22 -63 -26 0 -4 -22 -10 -50 -14
-27 -4 -52 -10 -54 -13 -2 -4 -28 -7 -58 -7 -29 0 -57 -4 -61 -10 -6 -7 -10
-6 -13 2 -3 7 -11 10 -17 8 -26 -9 -97 -13 -97 -6 0 4 -6 8 -14 8 -25 0 -85
33 -105 59 -11 14 -24 23 -30 20 -8 -5 -18 19 -27 62 -1 8 -10 22 -18 31 -9
10 -16 26 -16 35 0 12 -5 16 -14 13 -11 -4 -8 8 9 46 114 260 316 423 588 477
70 13 214 11 295 -6z m10347 -15 c264 -82 469 -293 541 -560 24 -90 26 -303 2
-379 -21 -67 -49 -78 -76 -30 -9 17 -21 30 -27 30 -15 1 -97 79 -141 135 -101
131 -172 184 -325 244 -102 40 -171 52 -184 31 -3 -5 -21 -10 -40 -10 -19 0
-37 -4 -40 -10 -3 -5 -15 -10 -26 -10 -10 0 -19 -5 -19 -11 0 -7 -10 -9 -25
-7 -14 3 -28 1 -31 -3 -3 -5 -14 -9 -24 -9 -10 0 -25 -7 -34 -15 -8 -8 -19
-15 -25 -15 -6 0 -11 -5 -11 -11 0 -6 -7 -9 -15 -5 -8 3 -15 1 -15 -5 0 -6 -4
-7 -10 -4 -5 3 -10 -1 -10 -9 0 -9 -7 -16 -16 -16 -18 0 -92 -31 -149 -62 -22
-12 -56 -30 -75 -39 -46 -24 -140 -70 -167 -83 -12 -6 -27 -27 -34 -48 -17
-52 -35 -55 -43 -7 -12 73 -7 292 8 344 19 69 76 191 120 256 79 116 242 242
377 293 99 36 170 46 309 42 102 -4 152 -10 205 -27z m-5780 -2218 c7 -12 -29
-254 -56 -376 -34 -154 -112 -639 -141 -875 -10 -82 -28 -130 -48 -130 -19 0
-266 -122 -309 -154 -207 -147 -344 -389 -373 -656 -20 -192 28 -368 143 -517
38 -49 62 -71 148 -135 130 -97 366 -153 546 -129 341 46 626 240 774 526 83
161 107 373 61 547 -19 69 -86 190 -141 251 -54 61 -145 130 -219 167 -25 12
-57 34 -72 48 -36 33 -36 62 -3 292 13 96 29 211 34 255 6 44 22 161 36 260
13 99 36 268 50 375 38 291 47 306 120 193 32 -50 197 -326 240 -401 11 -19
164 -277 230 -387 23 -38 129 -216 235 -395 106 -179 225 -379 264 -445 40
-66 119 -199 176 -295 57 -96 110 -186 119 -200 8 -14 26 -47 38 -74 17 -36
19 -47 8 -43 -8 4 -17 2 -19 -2 -3 -5 -19 -11 -36 -14 -25 -6 -42 -24 -99
-114 -38 -60 -83 -128 -100 -153 -17 -25 -86 -130 -155 -235 -491 -754 -578
-884 -592 -885 -5 0 -32 14 -58 30 -288 183 -762 322 -1196 351 -419 28 -781
-25 -1034 -151 -66 -33 -120 -59 -121 -57 -1 1 -16 40 -33 87 -17 47 -52 139
-77 205 -25 66 -57 149 -69 185 -13 36 -79 209 -146 385 -112 297 -121 324
-118 377 4 48 10 64 44 106 35 44 280 329 294 342 3 3 46 52 95 110 50 58 104
121 121 140 18 19 108 123 200 231 203 235 742 857 944 1088 80 92 154 178
165 191 27 34 97 90 112 90 6 0 14 -4 18 -9z m9965 -521 c0 -5 -5 -10 -11 -10
-5 0 -7 5 -4 10 3 6 8 10 11 10 2 0 4 -4 4 -10z m-19952 -96 c36 -5 52 -11 52
-22 0 -12 -3 -12 -15 -2 -9 7 -29 10 -48 7 -18 -3 -51 -2 -74 2 -33 6 -40 5
-36 -6 3 -8 -2 -13 -16 -13 -12 0 -21 5 -21 10 0 6 -10 8 -22 5 -50 -12 -183
-22 -188 -14 -3 5 -26 1 -50 -7 -68 -24 -153 -46 -172 -46 -9 0 -22 -6 -29
-14 -6 -8 -20 -14 -31 -14 -11 0 -36 -7 -56 -16 -21 -9 -52 -22 -70 -30 -18
-8 -37 -14 -42 -14 -5 0 -28 -12 -52 -27 -58 -38 -75 -48 -131 -78 -48 -26
-136 -93 -183 -140 -33 -33 -44 -32 -13 2 72 79 173 157 289 223 87 49 280
130 310 130 11 0 28 4 38 9 19 10 82 24 184 42 55 10 73 10 93 -1 14 -7 28
-10 32 -7 3 4 1 7 -6 7 -7 0 -9 5 -6 10 7 11 180 13 263 4z m162 -34 c0 -5 -2
-10 -4 -10 -3 0 -8 5 -11 10 -3 6 -1 10 4 10 6 0 11 -4 11 -10z m85 -20 c3 -5
-1 -10 -9 -10 -9 0 -16 5 -16 10 0 6 4 10 9 10 6 0 13 -4 16 -10z m6585 -565
c40 -10 62 -24 82 -47 23 -29 25 -34 10 -39 -9 -4 -24 -15 -33 -25 -18 -21
-49 -158 -55 -244 -3 -30 -11 -95 -19 -145 -8 -49 -16 -106 -18 -125 -3 -19
-14 -84 -25 -145 -11 -60 -26 -150 -32 -200 -27 -212 -62 -411 -75 -431 -36
-55 -75 -58 -1080 -69 -418 -5 -462 -8 -526 -30 -35 -13 -37 -12 -42 7 -6 20
8 132 74 608 16 118 33 249 39 290 58 445 66 483 112 535 67 76 35 73 828 74
588 1 714 -2 760 -14z m7603 -1 c26 -9 62 -31 79 -50 37 -39 261 -459 255
-477 -2 -7 -17 9 -33 35 -39 64 -54 68 -55 15 -1 -82 -10 -161 -19 -172 -5 -7
-8 -14 -5 -17 3 -2 -6 -47 -19 -99 -13 -52 -27 -114 -31 -139 -4 -25 -14 -62
-23 -83 -10 -27 -12 -41 -4 -49 8 -8 7 -15 -4 -25 -8 -8 -15 -23 -15 -34 -1
-10 -2 -22 -3 -26 -1 -5 -6 -24 -10 -43 -4 -19 -16 -59 -27 -89 -11 -29 -17
-62 -14 -72 4 -10 3 -24 -2 -31 -10 -16 -14 -36 -15 -70 -1 -16 -5 -28 -8 -28
-4 0 -7 -6 -8 -12 -4 -39 -18 -91 -24 -92 -4 -1 -17 13 -30 30 -36 49 -79 80
-137 99 -46 15 -62 16 -100 7 -32 -8 -192 -10 -531 -7 -537 4 -782 13 -962 34
-4 1 -7 38 -8 84 -1 45 -1 87 -2 92 0 6 5 73 11 150 5 77 8 156 7 175 -5 48
74 664 97 759 13 57 78 124 133 139 25 6 295 10 750 11 626 1 716 -1 757 -15z
m644 -2960 c-3 -3 -12 -4 -19 -1 -8 3 -5 6 6 6 11 1 17 -2 13 -5z m192 -57
c134 -54 263 -138 356 -232 117 -117 124 -127 270 -400 37 -70 83 -188 96
-245 6 -30 15 -68 20 -84 13 -41 12 -96 -1 -76 -8 13 -10 12 -10 -4 0 -18 -2
-18 -26 5 -14 13 -29 22 -32 19 -4 -3 -11 27 -15 65 -34 282 -148 536 -317
705 -129 129 -257 208 -450 277 -37 13 -51 21 -33 18 18 -2 82 -24 142 -48z
m-16998 -128 c122 -83 187 -165 231 -296 54 -161 39 -328 -53 -584 -27 -76
-49 -140 -49 -144 0 -3 -11 -30 -24 -58 -13 -29 -47 -108 -76 -177 -128 -311
-155 -416 -155 -605 1 -105 4 -127 25 -175 53 -120 149 -222 283 -300 43 -25
71 -46 64 -48 -23 -5 -166 47 -272 98 -170 83 -256 171 -308 318 -30 84 -30
323 1 437 33 123 85 267 147 410 112 257 172 401 199 479 94 275 71 473 -77
650 -36 43 -38 48 -16 41 13 -4 49 -25 80 -46z m7331 -289 c-5 -81 -62 -512
-192 -1450 -17 -118 -35 -249 -40 -290 -5 -41 -21 -154 -35 -250 -13 -96 -34
-247 -45 -335 -19 -149 -52 -383 -66 -466 -5 -31 -11 -37 -43 -46 l-36 -10 33
-2 c38 -1 38 -1 17 -145 -8 -55 -23 -171 -35 -256 -11 -85 -25 -186 -30 -225
-6 -38 -17 -119 -25 -180 -64 -469 -76 -540 -93 -553 -13 -10 -203 -12 -938
-10 -507 2 -926 7 -930 11 -7 7 4 123 27 287 5 36 15 121 23 190 13 109 36
281 66 485 4 33 16 128 26 210 11 97 22 156 32 168 12 13 31 17 96 17 56 0 76
3 66 10 -8 5 -33 10 -56 10 -96 0 -121 29 -104 120 5 25 20 135 34 245 15 110
40 299 57 420 53 391 58 429 71 525 10 74 17 100 35 117 20 21 21 24 7 53 -14
27 -13 46 6 198 11 92 28 212 36 267 15 107 26 186 45 330 32 253 80 538 94
564 15 30 29 37 90 44 17 2 431 4 920 3 l890 -1 -3 -55z m9190 10 c65 -30 113
-83 158 -173 30 -60 40 -91 40 -128 0 -47 -1 -49 -29 -49 -18 0 -34 -8 -44
-22 -85 -123 -233 -208 -362 -208 -102 0 -204 56 -252 137 -39 67 -40 172 -2
253 46 97 159 188 263 210 66 14 176 5 228 -20z m-15319 -322 c37 -19 352
-259 507 -385 28 -24 57 -43 63 -43 7 0 18 -9 24 -20 7 -11 27 -27 45 -36 49
-24 88 -65 88 -91 0 -13 5 -32 12 -43 12 -19 0 -75 -47 -225 -20 -63 -52 -172
-80 -270 -30 -103 -53 -153 -76 -166 -9 -4 -74 -29 -145 -54 -71 -26 -151 -55
-179 -65 -27 -10 -81 -30 -120 -43 -38 -14 -119 -43 -180 -65 -206 -75 -230
-84 -385 -138 -85 -30 -176 -64 -202 -74 -52 -22 -68 -25 -68 -11 0 10 74 104
144 181 23 25 97 110 165 188 68 79 134 150 147 159 18 11 37 13 81 8 117 -13
262 42 360 137 103 101 142 263 90 379 -53 120 -140 178 -279 187 -208 12
-416 -119 -459 -291 -15 -62 -7 -182 16 -229 22 -45 13 -73 -43 -133 -20 -22
-63 -71 -94 -110 -31 -38 -71 -86 -88 -105 -18 -19 -48 -55 -68 -80 -20 -25
-54 -66 -77 -91 -22 -26 -48 -57 -57 -70 l-17 -24 0 30 c0 35 2 56 74 575 14
102 39 286 56 410 17 124 36 234 44 245 11 17 699 375 720 375 3 0 16 -5 28
-12z m9157 -2347 c-55 -6 -100 -25 -155 -67 -16 -12 -48 -27 -70 -33 -78 -21
-254 -80 -285 -96 -33 -17 -32 -34 3 -36 17 -1 18 -2 5 -6 -10 -2 -18 -9 -18
-14 0 -9 5 -11 33 -13 6 -1 15 -5 20 -11 4 -6 10 -5 15 3 6 9 12 6 22 -13 14
-26 40 -34 40 -12 0 8 4 7 10 -3 8 -12 10 -12 11 5 0 17 1 18 7 3 11 -27 74
-69 94 -62 10 3 18 1 18 -5 0 -6 11 -11 25 -11 14 0 25 -4 25 -9 0 -5 21 -8
48 -8 26 1 59 -2 74 -6 21 -5 28 -3 31 10 4 14 5 13 6 -4 1 -16 6 -21 16 -17
8 4 12 11 8 18 -4 6 1 5 10 -2 9 -8 21 -11 26 -8 5 4 13 1 17 -5 4 -8 3 -9 -4
-5 -7 4 -12 5 -12 2 0 -2 -3 -11 -6 -20 -5 -12 0 -14 27 -11 18 2 36 10 40 17
6 8 9 9 9 2 0 -6 12 -11 26 -11 15 0 30 -6 34 -13 6 -9 10 -9 17 4 7 13 15 14
45 6 47 -13 49 -26 44 -210 -8 -249 -21 -303 -76 -314 -18 -3 -49 -6 -69 -6
-21 0 -80 -9 -132 -21 -52 -12 -118 -25 -147 -30 -29 -5 -72 -16 -95 -25 -23
-9 -62 -22 -87 -29 -86 -25 -295 -112 -350 -146 -61 -38 -148 -88 -180 -104
-19 -10 -61 -37 -93 -61 -32 -24 -76 -49 -97 -55 l-38 -12 -144 148 c-471 487
-440 457 -470 453 -26 -4 -28 -2 -28 29 0 73 40 119 188 216 259 169 471 283
702 377 149 61 431 154 515 170 33 6 103 22 155 35 62 15 121 23 170 23 73 -1
73 -2 20 -7z m6644 -120 c3 -4 -11 -15 -32 -23 -34 -13 -38 -19 -40 -54 -2
-21 -5 -46 -8 -55 -2 -10 -6 -30 -8 -46 -2 -15 -9 -46 -14 -68 -6 -22 -13 -74
-17 -115 -4 -41 -11 -104 -16 -140 -11 -70 -16 -103 -24 -163 -2 -21 -7 -42
-10 -47 -3 -5 -8 -31 -10 -57 -3 -26 -7 -64 -10 -83 -6 -43 -18 -168 -19 -192
0 -10 -3 -18 -7 -18 -3 0 -7 -28 -8 -62 -1 -33 -5 -66 -10 -72 -5 -6 -11 -31
-14 -56 -3 -25 -8 -54 -11 -65 -2 -11 -5 -23 -5 -26 -1 -3 -12 -11 -26 -17
-36 -17 -1421 -17 -1475 -1 l-38 12 0 80 c-1 44 4 89 10 100 5 11 12 58 14
106 6 123 15 201 23 201 4 0 7 37 6 83 -1 45 2 88 8 95 6 8 6 12 -3 12 -8 0
-9 6 -5 18 5 9 11 55 16 102 8 96 16 153 30 225 5 28 7 67 4 87 -3 20 0 40 5
43 6 4 8 10 6 14 -3 4 0 25 6 47 20 79 17 102 -14 115 -22 9 -26 14 -16 20 17
11 1705 11 1712 0z m-3847 -797 c23 -14 46 -31 50 -38 4 -8 22 -30 39 -48 17
-19 33 -38 35 -44 5 -11 91 -144 129 -199 44 -63 148 -269 143 -282 -2 -7 1
-20 7 -30 9 -15 10 -14 4 7 -3 14 -4 23 -2 20 8 -8 84 -154 91 -175 7 -20 7
-20 -8 -1 -23 31 -30 11 -11 -37 9 -23 16 -50 16 -60 0 -9 5 -17 10 -17 13 0
13 -43 1 -55 -6 -6 -3 -24 8 -46 22 -44 32 -91 18 -82 -6 3 -7 -25 -2 -78 4
-46 9 -175 10 -286 5 -280 -9 -328 -97 -356 -47 -15 -111 -17 -521 -17 -447
-1 -469 -2 -510 -21 -71 -34 -84 -44 -79 -58 3 -8 0 -11 -5 -8 -6 4 -14 69
-18 144 -4 76 -11 170 -15 208 -11 87 -72 302 -105 371 -14 28 -25 60 -25 72
0 11 -4 22 -9 24 -12 4 -32 88 -21 88 13 0 -2 42 -32 89 -15 25 -28 49 -28 55
0 14 -49 76 -61 76 -5 0 -14 -10 -19 -22 -8 -17 -9 -6 -7 44 4 83 14 99 129
193 47 39 175 143 284 233 109 90 210 173 224 185 73 63 178 145 200 157 63
34 110 32 177 -6z m-11881 -260 l133 -7 23 -46 c21 -43 23 -58 22 -216 0 -161
-11 -305 -21 -277 -8 20 -20 14 -33 -18 -7 -16 -19 -30 -27 -30 -8 0 -22 -18
-31 -40 -17 -42 -40 -55 -83 -48 -16 2 -34 20 -55 56 -28 46 -32 63 -36 146
-4 106 -13 122 -67 132 -20 4 -43 10 -52 15 -8 4 -42 10 -75 13 -37 3 -85 17
-125 36 -35 16 -69 30 -76 30 -9 0 -12 -52 -12 -202 0 -112 -5 -234 -10 -273
-5 -38 -14 -113 -21 -165 -6 -52 -20 -162 -31 -245 -32 -252 -49 -389 -49
-412 0 -22 4 -23 68 -23 78 0 89 -6 124 -72 23 -41 25 -52 17 -95 -18 -97 -18
-97 -38 -79 -20 18 -92 22 -120 6 -16 -8 -54 -12 -101 -9 -8 0 -58 0 -110 0
-52 -1 -130 3 -173 7 -43 5 -124 7 -180 5 -190 -8 -171 -3 -181 -46 -8 -32
-13 -38 -34 -35 -18 2 -32 17 -52 53 l-28 50 13 90 c8 50 14 98 14 108 1 15
13 17 100 17 55 0 106 3 115 6 9 3 20 22 26 43 8 32 72 470 116 801 8 63 21
156 29 205 8 50 16 112 17 139 3 45 1 49 -22 52 -90 13 -264 -10 -297 -39 -12
-11 -25 -34 -29 -51 -6 -30 -39 -121 -71 -198 -18 -44 -46 -56 -150 -65 l-72
-6 -30 49 c-17 26 -31 59 -31 72 0 13 30 145 67 293 l66 268 86 3 c183 7 1360
8 1487 2z m15599 -426 c-3 -18 -16 -118 -30 -223 -14 -104 -34 -255 -45 -335
-12 -80 -29 -208 -39 -285 -49 -370 -65 -459 -83 -477 -17 -17 -62 -18 -892
-18 -480 0 -901 3 -936 7 l-62 6 6 66 c4 36 16 127 27 201 10 74 24 173 29
220 13 104 32 249 65 485 14 99 30 220 36 270 8 61 16 93 27 102 13 10 219 12
960 13 l943 0 -6 -32z m-6603 -199 c12 -6 67 -50 122 -96 56 -47 110 -93 121
-102 11 -9 114 -95 230 -191 115 -96 223 -186 241 -200 35 -28 273 -226 423
-354 68 -57 78 -65 171 -141 191 -155 216 -181 259 -265 23 -44 40 -80 38 -80
-2 0 -17 19 -33 41 l-28 41 -71 -4 c-44 -3 -99 -16 -150 -36 -205 -78 -281
-105 -297 -104 -10 0 -20 -3 -23 -9 -4 -5 -13 -9 -21 -9 -8 0 -33 -8 -57 -19
-23 -10 -76 -30 -117 -44 -221 -75 -507 -179 -538 -196 -35 -19 -281 -106
-327 -116 -5 -1 -21 -7 -35 -13 -48 -21 -157 -62 -166 -62 -5 0 -48 -16 -94
-35 -46 -19 -91 -35 -98 -35 -22 0 -134 -51 -158 -72 -11 -10 -24 -18 -30 -18
-13 0 -34 -49 -27 -66 12 -32 -7 -11 -35 39 -51 90 -50 97 23 337 8 25 32 104
53 175 67 218 108 352 177 576 36 118 89 288 116 379 191 623 198 643 221 667
24 25 75 31 110 12z m3425 -81 c-3 -8 -6 -5 -6 6 -1 11 2 17 5 13 3 -3 4 -12
1 -19z m-7942 -69 c62 -23 121 -82 164 -164 42 -80 54 -125 35 -125 -8 0 -14
5 -14 11 0 5 -4 7 -10 4 -5 -3 -10 -15 -10 -26 0 -75 -109 -201 -218 -252 -62
-29 -75 -32 -167 -31 -79 0 -110 5 -146 21 -127 58 -178 227 -110 368 45 96
116 159 216 194 33 11 71 22 85 25 40 6 121 -5 175 -25z m-4252 -856 c-7 -2
-21 -2 -30 0 -10 3 -4 5 12 5 17 0 24 -2 18 -5z m6931 -134 c30 -7 57 -25 87
-56 24 -25 38 -43 31 -39 -6 4 -19 0 -28 -9 -13 -13 -15 -28 -11 -73 18 -158
28 -216 45 -255 11 -24 22 -65 26 -93 4 -27 14 -59 22 -71 8 -12 14 -31 14
-42 0 -11 9 -26 19 -33 11 -8 29 -39 41 -68 12 -30 30 -71 40 -90 11 -19 38
-80 60 -135 22 -55 54 -119 70 -142 42 -58 39 -103 -6 -103 -14 0 -27 -6 -30
-14 -3 -8 -18 -16 -35 -20 -28 -5 -117 -74 -204 -158 -22 -21 -59 -50 -81 -65
-23 -16 -70 -53 -104 -83 -34 -30 -73 -61 -86 -68 -13 -7 -24 -17 -24 -22 0
-6 -4 -10 -10 -10 -10 0 -22 -9 -90 -70 -21 -19 -45 -40 -52 -45 -7 -6 -38
-31 -68 -56 -30 -26 -73 -53 -94 -60 -43 -15 -83 -50 -105 -92 -13 -24 -11
-32 33 -117 25 -49 43 -90 38 -90 -16 0 -217 301 -264 395 -8 17 -52 102 -97
190 -83 161 -101 201 -165 375 -39 106 -87 299 -112 447 -21 132 -35 443 -24
565 7 85 12 104 36 136 61 82 51 80 602 81 318 1 498 -3 526 -10z m5194 -8
c53 -27 71 -51 146 -192 60 -116 66 -132 66 -187 0 -33 -7 -82 -15 -108 -8
-27 -26 -89 -41 -139 -14 -49 -31 -93 -38 -97 -13 -8 -15 -30 -3 -39 12 -9 -3
-40 -17 -32 -6 3 -8 3 -4 -1 3 -4 1 -22 -7 -39 -7 -18 -10 -38 -8 -44 3 -7 -2
-16 -11 -19 -9 -3 -16 -12 -16 -19 0 -7 -8 -16 -17 -19 -12 -5 -13 -10 -5 -18
12 -12 4 -41 -9 -32 -5 3 -9 0 -9 -5 0 -6 -7 -11 -15 -11 -9 0 -15 -9 -15 -24
0 -29 -27 -59 -46 -52 -8 3 -14 -1 -14 -9 0 -8 -7 -15 -16 -15 -12 0 -15 -6
-10 -25 5 -20 3 -25 -12 -25 -25 0 -81 -100 -75 -134 4 -19 1 -26 -11 -26 -9
0 -16 -8 -17 -17 0 -12 -2 -13 -6 -5 -7 18 -43 -14 -43 -38 0 -9 -8 -25 -18
-36 -38 -40 -56 -75 -43 -83 18 -12 2 -41 -24 -41 -24 0 -75 -45 -75 -66 0 -8
-4 -14 -9 -14 -5 0 -15 -17 -22 -37 -6 -21 -20 -46 -30 -56 -11 -10 -19 -22
-19 -27 0 -6 -6 -10 -13 -10 -16 0 -67 -58 -67 -76 0 -8 -7 -14 -16 -14 -12 0
-15 -6 -10 -24 3 -12 2 -26 -2 -30 -4 -4 -8 -12 -8 -17 -1 -5 -2 -13 -3 -18 0
-4 -12 -20 -26 -35 -14 -15 -25 -33 -25 -41 0 -8 -10 -17 -23 -20 -12 -3 -31
-19 -42 -36 -11 -16 -28 -32 -38 -35 -42 -13 -124 -130 -113 -160 7 -17 -48
-33 -84 -24 -22 6 -98 100 -99 124 -1 16 -74 111 -120 156 -25 25 -68 70 -95
100 -67 75 -210 224 -393 411 l-153 157 0 56 c0 81 17 113 120 222 226 241
409 550 479 812 30 110 52 161 87 194 64 60 43 58 602 58 484 0 515 -1 550
-19z m-12390 -108 c-10 -2 -26 -2 -35 0 -10 3 -2 5 17 5 19 0 27 -2 18 -5z
m1412 -403 c-6 -11 -13 -20 -16 -20 -2 0 0 9 6 20 6 11 13 20 16 20 2 0 0 -9
-6 -20z m-37 -87 c-4 -10 -15 -27 -25 -37 -10 -11 -18 -24 -18 -29 0 -12 -51
-79 -72 -95 -9 -7 -15 -19 -12 -27 4 -10 -3 -18 -20 -25 -17 -6 -24 -14 -20
-25 4 -9 1 -15 -9 -15 -8 0 -27 -16 -41 -35 -15 -20 -31 -33 -36 -30 -5 3 -19
-8 -31 -25 -13 -16 -29 -30 -36 -30 -8 0 -12 -4 -8 -9 3 -6 -6 -18 -21 -28
-14 -10 -40 -30 -57 -44 -18 -14 -70 -45 -117 -68 -47 -24 -92 -49 -100 -56
-8 -7 -21 -10 -27 -8 -7 3 -15 -2 -18 -10 -4 -8 -21 -14 -42 -15 -20 -1 -53
-11 -75 -22 -21 -11 -57 -23 -81 -26 -23 -4 -46 -10 -52 -14 -25 -19 -176 -34
-338 -35 -70 0 -127 -3 -127 -7 0 -4 -9 -6 -20 -5 -11 1 -20 4 -20 8 0 3 -17
4 -37 0 -21 -3 -60 -5 -88 -4 -27 2 -99 4 -160 6 -60 2 -123 6 -140 10 -19 5
-23 4 -11 -1 19 -8 19 -9 1 -16 -11 -4 -22 -2 -27 6 -6 11 -8 10 -8 0 0 -10
-14 -12 -55 -10 -30 2 -57 7 -61 10 -3 4 -16 3 -28 -1 -11 -5 -30 -5 -41 -1
-11 4 -27 2 -36 -3 -11 -7 -60 -7 -148 -1 -73 5 -144 6 -158 2 -33 -9 -572 -2
-597 8 -13 5 -17 4 -12 -4 5 -8 -44 -9 -176 -6 -101 3 -327 6 -503 8 -308 2
-322 3 -366 25 -26 12 -50 21 -55 20 -22 -6 -94 14 -112 32 -12 10 -31 19 -44
19 -19 1 -20 2 -7 10 10 6 31 4 60 -7 24 -8 85 -25 134 -36 88 -21 113 -21
1455 -24 856 -3 1415 0 1500 6 286 21 525 110 764 282 129 93 278 250 348 367
21 34 42 44 31 15z m-4303 -587 c0 -2 -9 -6 -20 -9 -11 -3 -18 -1 -14 4 5 9
34 13 34 5z m10700 -134 c31 -6 84 -39 164 -102 229 -176 494 -278 869 -334
107 -15 148 -38 193 -104 l22 -32 26 40 c42 64 92 86 241 105 115 14 282 49
355 74 14 5 45 15 70 22 118 33 359 146 490 228 158 98 170 104 229 105 33 0
70 -6 92 -16 30 -14 270 -262 618 -637 18 -20 47 -65 63 -101 16 -36 50 -105
75 -153 86 -167 59 -210 -262 -416 -166 -107 -388 -222 -585 -304 -161 -67
-428 -157 -540 -181 -278 -61 -383 -78 -583 -96 -166 -14 -230 5 -272 84 -23
42 -31 45 -39 13 -9 -36 -61 -79 -113 -92 -87 -21 -375 11 -633 71 -406 94
-782 270 -1100 513 -201 154 -215 171 -347 420 -27 53 -31 127 -7 176 17 37
53 69 297 269 93 76 181 148 195 161 15 13 97 80 182 149 152 124 221 164 260
149 8 -3 26 -8 40 -11z m3870 -821 c0 -5 -15 -20 -32 -32 l-33 -22 29 31 c32
34 36 37 36 23z m-95 -81 c-3 -5 -12 -10 -18 -10 -7 0 -6 4 3 10 19 12 23 12
15 0z m-10075 -3355 c127 -7 141 -9 159 -20 11 -6 13 -4 8 8 -5 13 -3 15 11 7
9 -5 30 -12 46 -15 23 -5 27 -8 15 -16 -12 -7 -12 -9 1 -9 13 0 13 -2 1 -9 -8
-5 -20 -7 -28 -4 -7 3 -13 0 -13 -6 0 -8 -5 -9 -19 -1 -23 12 -61 13 -61 3 0
-9 -49 -33 -67 -33 -7 0 -10 7 -6 17 5 12 3 14 -8 7 -8 -5 -37 -9 -65 -10 -45
-1 -51 2 -46 18 3 13 -2 18 -19 20 -13 0 -31 2 -39 3 -8 1 -19 -1 -25 -4 -20
-10 -51 -8 -72 5 -19 12 -23 12 -31 -1 -12 -23 -40 -9 -35 18 3 17 11 23 31
22 15 -1 36 2 47 7 11 4 40 5 65 3 25 -3 92 -7 150 -10z"/>
<path d="M21811 16323 c-71 -34 -122 -87 -144 -148 -26 -77 -23 -115 16 -160
18 -21 38 -36 43 -32 6 3 16 24 23 45 33 98 144 162 244 141 65 -14 83 -27
112 -81 33 -60 46 -53 53 26 7 85 -38 167 -118 215 -53 31 -157 29 -229 -6z"/>
<path d="M11115 11711 c-85 -22 -172 -95 -193 -162 -16 -50 -21 -85 -15 -109
l6 -21 14 21 c8 11 19 17 25 14 5 -4 31 14 56 39 58 57 124 86 201 88 60 2
122 -21 159 -58 15 -15 17 -14 22 8 9 36 -23 99 -73 142 -39 33 -51 38 -108
42 -35 2 -77 1 -94 -4z"/>
<path d="M15802 8750 c0 -14 2 -19 5 -12 2 6 2 18 0 25 -3 6 -5 1 -5 -13z"/>
<path d="M15722 8170 c0 -14 2 -19 5 -12 2 6 2 18 0 25 -3 6 -5 1 -5 -13z"/>
<path d="M15712 8100 c0 -14 2 -19 5 -12 2 6 2 18 0 25 -3 6 -5 1 -5 -13z"/>
<path d="M15701 8024 c0 -11 3 -14 6 -6 3 7 2 16 -1 19 -3 4 -6 -2 -5 -13z"/>
<path d="M27260 20965 c0 -8 5 -15 10 -15 6 0 10 7 10 15 0 8 -4 15 -10 15 -5
0 -10 -7 -10 -15z"/>
<path d="M27258 20843 c7 -3 16 -2 19 1 4 3 -2 6 -13 5 -11 0 -14 -3 -6 -6z"/>
<path d="M27249 20353 c-8 -56 -8 -74 3 -71 7 3 12 18 13 34 0 16 5 32 10 36
6 4 2 8 -7 8 -10 0 -19 -3 -19 -7z"/>
<path d="M27250 19968 c0 -19 2 -20 10 -8 13 19 13 30 0 30 -5 0 -10 -10 -10
-22z"/>
<path d="M15109 4981 c19 -12 179 -12 187 0 3 5 -40 9 -98 9 -66 0 -98 -4 -89
-9z"/>
</g>
</svg>
