<?xml version="1.0" standalone="no"?>
<!DOCTYPE svg PUBLIC "-//W3C//DTD SVG 20010904//EN"
 "http://www.w3.org/TR/2001/REC-SVG-20010904/DTD/svg10.dtd">
<svg version="1.0" xmlns="http://www.w3.org/2000/svg"
 width="588.000000pt" height="588.000000pt" viewBox="0 0 588.000000 588.000000"
 preserveAspectRatio="xMidYMid meet">

<g transform="translate(0.000000,588.000000) scale(0.100000,-0.100000)"
fill="#000000" stroke="none">
<path d="M2796 5865 c-33 -9 -56 -11 -67 -4 -10 5 -28 9 -40 9 -18 0 -20 -3
-11 -12 7 -7 12 -15 12 -18 0 -3 -48 -7 -107 -8 -59 -1 -136 -7 -170 -12 -91
-15 -271 -71 -398 -125 -60 -26 -135 -58 -165 -70 -30 -13 -84 -29 -120 -36
-123 -22 -272 -99 -451 -231 -86 -64 -400 -366 -444 -428 -16 -23 -49 -67 -73
-98 -86 -114 -130 -189 -175 -302 l-47 -115 68 71 c37 39 76 77 87 85 22 16
30 31 -87 -161 -35 -58 -79 -135 -98 -172 -37 -71 -55 -87 -44 -40 14 63 13
65 -10 17 -14 -28 -25 -69 -25 -93 -1 -24 -15 -75 -33 -118 -27 -65 -41 -84
-92 -127 -56 -46 -145 -97 -172 -97 -12 0 -29 -48 -21 -57 6 -6 113 43 148 68
17 12 32 19 35 16 3 -3 -6 -56 -20 -118 -24 -112 -41 -308 -25 -292 7 7 18 43
68 223 23 82 96 267 119 301 9 15 39 55 66 90 26 35 77 123 112 194 73 149 88
136 18 -16 -25 -55 -44 -105 -42 -111 7 -19 107 139 118 185 38 160 154 427
213 495 19 20 63 82 100 137 60 91 137 181 137 161 0 -5 -15 -34 -34 -65 -82
-135 -235 -518 -265 -661 -5 -25 -16 -70 -25 -100 -9 -30 -16 -63 -16 -74 0
-16 2 -16 18 5 10 13 45 74 77 134 65 124 206 358 211 352 2 -2 -27 -66 -66
-143 -252 -507 -290 -590 -286 -630 2 -21 7 -94 11 -162 4 -67 10 -120 13
-118 2 3 8 22 12 43 5 21 17 59 27 85 15 39 16 52 5 68 -6 11 -12 31 -12 46 0
27 57 155 83 189 16 20 16 20 17 -2 0 -13 5 -23 11 -23 8 0 10 14 6 45 -6 39
-2 52 26 98 29 47 32 50 35 27 9 -61 -4 -160 -24 -187 -11 -15 -24 -44 -27
-62 -17 -82 -29 -115 -37 -101 -14 22 -18 11 -29 -80 -12 -88 -35 -194 -53
-239 -13 -34 -17 -86 -24 -311 -5 -148 -9 -188 -22 -203 -20 -22 -21 -61 -6
-177 8 -52 14 -101 14 -107 0 -19 -18 -15 -23 5 -3 9 -5 1 -6 -18 0 -19 6 -48
14 -64 8 -15 15 -35 15 -43 0 -7 11 -25 25 -39 14 -14 25 -35 25 -46 0 -12 23
-55 51 -95 36 -53 61 -106 90 -191 37 -110 102 -254 134 -296 21 -28 31 -11
16 27 -7 18 -26 68 -42 112 l-30 80 46 -50 c46 -49 46 -50 26 -12 -12 21 -21
43 -21 48 0 6 -18 40 -40 77 -49 80 -63 125 -95 300 -23 120 -24 136 -10 161
9 19 15 62 16 124 l1 96 24 -16 c27 -18 31 -33 8 -33 -25 0 -12 -33 16 -40 26
-6 30 -17 50 -122 12 -60 42 -108 48 -75 2 8 -4 39 -12 68 -9 29 -16 62 -16
73 0 56 73 68 92 15 8 -25 12 -27 29 -16 10 6 18 16 18 22 -1 5 -1 18 0 29 1
15 4 16 15 7 11 -9 20 -10 35 -1 29 15 27 22 -17 55 l-39 29 -9 105 c-6 62 -7
111 -1 118 5 7 4 20 -2 31 -11 20 -25 190 -22 267 1 31 -4 45 -23 60 -19 17
-24 32 -29 94 l-6 74 25 -24 24 -23 -1 120 c-2 161 18 471 37 569 9 44 27 104
41 134 14 30 38 88 53 130 29 85 56 106 62 49 4 -47 19 -38 38 25 17 53 70
160 77 153 2 -2 -17 -61 -43 -132 -116 -326 -190 -579 -172 -590 15 -10 23 5
42 76 9 36 24 76 32 90 l14 25 -4 -25 c-14 -74 -17 -134 -7 -125 6 6 14 39 17
73 4 34 10 62 14 62 7 0 27 85 56 240 14 78 68 250 108 344 9 21 13 42 10 47
-7 11 21 51 29 42 4 -3 7 1 7 9 0 15 191 291 209 302 7 5 -47 -188 -78 -278
-12 -35 -9 -31 56 50 27 34 82 97 122 140 67 72 78 76 55 19 -5 -14 2 -10 25
13 35 35 58 41 67 17 4 -8 -15 -76 -40 -150 -25 -75 -46 -139 -46 -142 0 -4
13 6 30 22 l30 28 -21 -58 c-22 -64 -20 -85 11 -85 14 0 32 19 57 60 21 33 41
60 44 60 7 0 19 -87 19 -137 0 -74 25 -25 50 98 8 41 19 64 42 85 l30 29 -4
-83 c-3 -45 -3 -80 -1 -78 2 2 25 64 50 137 44 132 68 189 79 189 3 0 14 -5
25 -11 15 -8 19 -17 15 -37 -14 -67 -35 -345 -27 -360 7 -13 10 -11 16 9 23
80 50 128 141 250 l102 136 60 7 c33 4 62 12 64 18 3 7 21 -2 46 -22 41 -34
42 -36 35 -80 -13 -86 -6 -206 22 -375 31 -190 38 -215 59 -215 21 0 33 26 41
90 3 30 11 84 17 120 11 62 12 63 19 31 4 -19 10 -86 14 -149 l7 -113 19 30
c10 17 27 31 37 31 14 0 22 13 31 53 22 84 27 85 46 11 16 -62 35 -104 35 -78
0 14 -19 174 -25 212 -7 40 5 41 27 4 21 -35 58 -235 58 -309 0 -33 4 -53 11
-53 9 0 10 25 5 90 -8 104 3 116 33 35 19 -50 32 -133 47 -297 3 -38 10 -68
15 -68 15 0 30 50 24 84 -3 17 -7 74 -10 126 -4 101 6 130 46 130 27 0 34 -18
39 -105 l5 -80 44 73 44 73 -6 162 c-3 89 -10 177 -16 195 -13 44 2 41 22 -5
25 -57 47 -150 53 -228 7 -88 -21 -232 -65 -332 -32 -73 -38 -103 -22 -103 17
0 50 85 75 195 29 130 40 286 29 408 l-9 88 26 -6 c14 -4 26 -7 26 -8 10 -11
34 -227 34 -303 0 -89 -29 -314 -46 -359 -5 -11 -4 -16 3 -12 5 3 27 48 48 99
45 109 42 105 56 91 8 -8 8 -51 -1 -153 -6 -78 -14 -148 -17 -156 -3 -8 1 -14
10 -14 11 0 16 22 21 103 4 56 11 127 16 157 7 44 8 27 7 -78 -1 -72 1 -132 4
-132 10 0 19 99 19 218 0 102 2 113 17 110 40 -8 35 -161 -12 -428 -13 -74
-26 -146 -28 -160 -3 -14 -8 -34 -12 -45 -6 -18 -5 -18 7 -4 7 9 24 73 38 144
13 70 26 122 28 115 7 -19 -18 -241 -34 -301 -17 -68 -17 -69 -3 -69 27 0 120
264 144 412 22 137 20 179 -14 246 -16 31 -54 126 -85 209 -60 165 -95 242
-120 262 -9 8 -16 21 -16 31 0 24 -72 132 -126 191 -39 40 -44 51 -34 64 10
12 -3 32 -77 117 -123 143 -125 147 -85 119 19 -13 69 -65 113 -115 44 -50 86
-91 93 -91 11 0 85 -64 240 -206 108 -99 348 -284 476 -367 68 -44 126 -80
127 -78 7 6 -65 160 -88 189 -15 18 -86 73 -158 122 -72 49 -129 90 -127 93 3
2 22 -8 43 -22 80 -54 109 -19 42 51 -26 27 -35 41 -22 34 12 -6 24 -15 28
-20 3 -5 24 -24 47 -43 l42 -33 -24 43 c-13 23 -50 67 -82 98 -32 31 -58 59
-58 64 0 16 27 29 51 24 l24 -6 -25 24 c-14 13 -44 38 -65 56 l-40 33 33 -4
c37 -4 40 3 12 28 -11 10 -20 22 -20 27 0 19 27 5 61 -32 32 -35 40 -39 70
-34 27 4 41 0 70 -23 141 -110 194 -156 265 -232 45 -47 85 -83 88 -80 3 3
-15 32 -40 65 -25 32 -52 74 -60 94 -8 19 -23 44 -33 55 -10 11 -35 48 -56 83
-40 65 -132 177 -278 338 -89 98 -109 135 -39 73 20 -19 86 -72 144 -118 95
-74 117 -98 191 -205 46 -67 115 -176 153 -244 37 -67 86 -139 108 -160 l39
-37 -20 35 c-104 180 -146 248 -210 342 -41 59 -72 108 -69 108 3 0 24 -18 46
-39 81 -79 280 -252 280 -244 0 4 -36 55 -80 113 -75 98 -89 120 -74 120 12 0
109 -109 106 -119 -2 -6 1 -11 7 -11 6 0 10 -3 9 -7 -1 -5 16 -39 39 -78 85
-146 120 -242 174 -485 6 -25 21 -56 33 -70 14 -15 31 -54 40 -95 10 -38 19
-76 21 -83 4 -9 -1 -11 -15 -7 -25 8 -26 9 10 -67 31 -65 41 -123 18 -100 -7
7 -16 12 -20 12 -9 0 5 -36 48 -124 l29 -60 5 35 c5 32 7 30 32 -46 147 -446
172 -705 91 -959 -14 -44 -27 -86 -30 -93 -8 -21 15 -15 27 7 17 31 47 195 62
330 17 161 17 385 1 401 -10 10 -11 1 -6 -41 4 -39 3 -51 -5 -46 -7 4 -12 17
-12 30 0 12 -16 81 -36 152 -20 71 -54 194 -76 274 -21 80 -36 127 -33 105 5
-40 5 -40 -10 -14 -8 15 -17 46 -20 70 l-5 44 14 -30 c29 -59 15 -4 -53 212
-75 234 -99 304 -100 288 -2 -12 -21 16 -21 30 0 6 5 3 10 -5 5 -8 10 -10 10
-4 0 6 -10 19 -22 28 -13 9 -17 14 -10 11 16 -8 15 -4 -4 45 -9 23 -21 37 -27
33 -6 -4 -8 0 -5 8 7 19 -166 352 -177 342 -4 -5 -5 0 -2 10 4 11 -5 29 -27
55 -19 20 -54 61 -77 91 -24 30 -51 56 -59 59 -8 2 -1 -11 17 -29 25 -27 30
-38 22 -52 -6 -9 -7 -23 -3 -30 9 -14 -26 15 -122 103 -129 119 -313 268 -457
371 -32 22 -56 43 -54 45 7 7 117 -24 152 -43 89 -49 350 -289 431 -397 49
-65 58 -67 17 -3 -14 23 -26 44 -26 47 0 3 -76 78 -170 168 -149 143 -179 167
-251 201 -193 92 -482 180 -726 220 -246 41 -528 52 -624 26z m-1151 -353 c-6
-5 -62 -45 -125 -90 -64 -44 -170 -127 -235 -184 -159 -137 -174 -148 -199
-148 -17 1 -12 9 29 46 28 25 100 83 160 129 61 45 142 108 180 139 96 78 155
116 179 116 11 0 16 -4 11 -8z m225 -142 c12 -7 13 -15 4 -38 -11 -29 -176
-234 -183 -227 -7 8 145 275 157 275 4 0 14 -5 22 -10z m1880 -170 c0 -5 -4
-10 -10 -10 -5 0 -10 5 -10 10 0 6 5 10 10 10 6 0 10 -4 10 -10z m-2040 -20
c0 -5 -4 -10 -10 -10 -5 0 -10 5 -10 10 0 6 5 10 10 10 6 0 10 -4 10 -10z
m3025 -120 c16 -17 16 -20 3 -15 -9 4 -19 13 -22 21 -7 19 -2 18 19 -6z m-315
-31 c25 -22 36 -36 25 -30 -28 14 -92 70 -80 70 6 0 30 -18 55 -40z m-1370
-21 c0 -25 -3 -29 -10 -18 -13 20 -13 50 0 50 6 0 10 -15 10 -32z m-1511 -103
c-18 -30 -34 -53 -36 -51 -2 1 11 34 29 72 21 45 33 63 36 51 2 -10 -11 -43
-29 -72z m-574 -330 c-23 -59 -30 -53 -9 9 9 26 18 45 21 42 3 -3 -3 -25 -12
-51z m-355 -325 c-41 -71 -57 -89 -41 -47 26 64 74 142 79 127 2 -6 -15 -42
-38 -80z m520 19 c-6 -24 -14 -122 -17 -217 -5 -159 -7 -171 -21 -150 -9 13
-15 38 -13 62 11 199 21 310 28 315 5 3 13 15 16 25 13 35 18 9 7 -35z m37
-78 c-8 -36 -16 -61 -19 -55 -3 5 2 41 11 79 8 39 17 63 18 55 2 -8 -3 -44
-10 -79z m-20 -143 c-2 -13 -4 -5 -4 17 -1 22 1 32 4 23 2 -10 2 -28 0 -40z
m20 -130 c-3 -8 -6 -5 -6 6 -1 11 2 17 5 13 3 -3 4 -12 1 -19z m3 -59 c0 -28
-4 -39 -12 -37 -24 8 -22 78 2 78 5 0 10 -18 10 -41z m-62 -76 l-1 -36 -19 23
c-10 13 -18 38 -18 59 l1 36 19 -23 c12 -15 19 -37 18 -59z m-93 30 c4 -10 12
-56 19 -103 9 -69 15 -85 30 -88 16 -4 17 1 12 50 l-7 53 21 -24 c16 -19 20
-37 20 -102 0 -43 -4 -79 -8 -79 -4 0 -26 18 -47 40 -21 22 -43 40 -48 40 -15
0 27 -62 66 -95 35 -30 37 -35 37 -90 l0 -59 -27 25 c-16 14 -37 32 -48 40
-18 13 -18 12 2 -16 11 -16 30 -38 42 -49 28 -26 18 -36 -37 -36 -44 0 -50 3
-80 42 -33 44 -49 84 -38 95 3 4 25 -11 48 -33 l42 -39 -42 54 c-36 46 -42 60
-42 103 0 50 59 288 71 288 4 0 10 -8 14 -17z m149 -49 c3 -9 6 -32 6 -52 0
-48 -20 -29 -27 27 -6 41 8 58 21 25z m-224 -434 c0 -5 -4 -10 -10 -10 -5 0
-10 5 -10 10 0 6 5 10 10 10 6 0 10 -4 10 -10z m130 -110 l25 -19 -35 9 c-35
10 -70 5 -70 -9 0 -4 33 -20 74 -36 l73 -28 17 -98 c25 -150 25 -147 -31 -142
-77 7 -73 1 -71 124 2 78 -1 114 -9 116 -7 3 -14 -11 -18 -34 -3 -21 -10 -58
-16 -83 -7 -25 -14 -58 -17 -74 -9 -55 -71 175 -72 266 0 76 0 77 28 80 26 3
33 -1 122 -72z m55 34 c3 -25 4 -49 1 -52 -4 -3 -27 14 -52 39 -43 42 -44 44
-22 51 56 15 65 11 73 -38z m83 -339 c1 -69 -16 15 -22 106 l-5 94 14 -85 c7
-47 13 -98 13 -115z m-398 -260 c0 -8 -4 -15 -10 -15 -5 0 -10 7 -10 15 0 8 5
15 10 15 6 0 10 -7 10 -15z"/>
<path d="M1821 4797 c-88 -223 -126 -341 -147 -452 -6 -35 -8 -37 -13 -16 -4
14 -12 26 -19 29 -9 3 -12 -21 -12 -92 0 -52 -4 -98 -10 -101 -5 -3 -10 -11
-10 -16 0 -6 5 -7 10 -4 16 10 12 -11 -5 -25 -9 -8 -15 -30 -15 -59 0 -42 -22
-200 -36 -260 -4 -18 -8 -21 -17 -12 -16 16 -27 14 -27 -8 0 -10 9 -25 19 -32
17 -13 18 -21 10 -93 -5 -44 -11 -82 -14 -84 -2 -2 -20 5 -40 17 -45 26 -55
26 -55 2 0 -12 18 -31 51 -51 l51 -31 -7 -77 c-4 -42 -8 -78 -9 -79 -1 -1 -19
11 -39 28 -35 28 -37 29 -37 10 0 -14 16 -33 45 -53 25 -18 45 -40 45 -50 0
-22 -1 -22 -45 -4 -31 13 -35 13 -35 0 0 -9 17 -22 39 -31 29 -11 40 -22 44
-42 8 -38 1 -38 -38 -1 -36 34 -54 36 -37 3 6 -10 8 -30 5 -45 -5 -24 -1 -29
36 -44 l41 -16 0 -57 c0 -125 54 -263 132 -338 47 -46 118 -82 161 -83 15 0
27 -2 27 -5 0 -2 -13 -53 -29 -112 -29 -106 -49 -219 -32 -178 5 11 31 81 58
155 48 132 50 135 81 138 24 2 32 -1 32 -12 0 -9 7 -16 15 -16 8 0 15 8 15 18
0 10 5 23 12 30 9 9 8 12 -4 12 -14 0 -14 7 -4 63 7 35 22 79 34 99 36 58 25
73 -30 44 -15 -8 -30 -11 -33 -6 -6 10 19 31 42 34 13 2 22 21 35 77 9 41 17
87 18 102 0 40 57 147 77 147 29 0 155 -82 174 -114 10 -16 32 -75 50 -130 32
-99 49 -135 49 -105 1 7 21 -8 45 -36 24 -27 46 -47 49 -45 9 10 -35 95 -65
126 -19 19 -41 63 -58 112 -46 132 -132 258 -232 339 -38 30 -69 59 -69 64 0
4 6 36 14 71 8 35 19 115 25 178 7 63 21 147 33 185 32 110 34 163 6 205 -29
43 -73 58 -127 42 -37 -12 -118 -91 -259 -255 l-41 -48 -16 38 c-30 71 -49
243 -27 243 21 0 41 -30 56 -80 19 -70 37 -95 61 -86 26 10 15 68 -46 252
l-51 153 20 73 c72 268 104 380 122 432 23 69 24 76 8 76 -7 0 -33 -51 -57
-113z m-86 -685 c-2 -2 -13 2 -25 8 -19 10 -21 17 -15 57 12 79 19 81 31 8 7
-38 10 -71 9 -73z m312 -227 c-17 -44 -78 -248 -88 -293 l-11 -53 -34 31 c-19
16 -48 37 -64 45 -19 10 -28 20 -24 28 35 58 133 198 157 225 32 33 74 45 64
17z m-325 -117 c-10 -10 -15 -10 -22 2 -5 8 -10 24 -10 35 0 19 1 19 22 -3 18
-17 20 -24 10 -34z m-79 -15 c16 -35 12 -41 -16 -20 -11 8 -15 20 -11 35 4 12
8 21 9 20 1 -2 9 -18 18 -35z m187 -21 c0 -12 -56 -99 -69 -107 -6 -3 2 15 19
42 19 30 26 49 19 52 -8 2 -7 6 2 12 18 11 29 11 29 1z m-195 -72 c7 -32 -18
-125 -37 -136 -8 -5 -9 18 -4 77 5 46 10 87 13 92 8 13 21 -2 28 -33z m125 36
c0 -2 -8 -10 -17 -17 -16 -13 -17 -12 -4 4 13 16 21 21 21 13z m307 -35 c0
-11 -5 -17 -9 -15 -5 3 -11 -3 -14 -13 -3 -10 -10 -26 -15 -36 -5 -10 -7 -22
-4 -27 4 -6 1 -10 -5 -10 -6 0 -9 -3 -7 -7 3 -5 1 -17 -4 -28 -7 -19 -8 -19
-8 2 -1 25 24 95 47 131 18 27 21 28 19 3z m31 -63 c-3 -7 -13 -37 -23 -66 -9
-29 -19 -51 -22 -48 -3 3 2 23 11 46 9 22 16 49 16 60 0 11 5 20 11 20 6 0 9
-6 7 -12z m-268 -68 c39 -32 60 -38 60 -15 0 18 11 19 33 3 14 -11 15 -22 8
-66 -4 -29 -10 -55 -13 -57 -3 -3 -30 10 -61 28 -31 19 -70 40 -86 47 l-30 12
20 39 c10 21 23 39 27 39 4 0 23 -13 42 -30z m-248 -80 c-6 -41 -12 -38 -12 6
0 19 4 33 8 30 5 -3 7 -19 4 -36z m166 -29 c-7 -9 -14 -18 -15 -20 -2 -2 -3
10 -3 29 0 28 2 31 15 20 12 -10 13 -16 3 -29z m-181 -88 c-3 -10 -5 -2 -5 17
0 19 2 27 5 18 2 -10 2 -26 0 -35z m332 31 c26 -19 16 -36 -17 -28 -13 4 -22
14 -22 25 0 23 9 24 39 3z m199 -57 c-25 -9 -31 -5 -22 16 5 13 9 14 25 4 18
-11 18 -12 -3 -20z m-431 -107 c57 -85 159 -138 229 -118 20 5 53 6 75 3 39
-7 49 1 27 23 -9 9 -9 15 -1 23 7 7 16 3 30 -15 18 -22 19 -32 11 -73 -5 -26
-12 -58 -14 -70 -7 -39 -25 -26 -20 15 l5 37 -12 -39 -11 -38 -53 5 c-58 6
-158 54 -195 94 l-23 26 38 -7 c21 -4 45 -10 53 -13 8 -3 14 -1 14 4 0 6 -40
28 -89 51 -66 29 -91 37 -93 27 -2 -10 -11 -7 -31 9 -24 20 -29 33 -34 85 l-6
62 32 -19 c18 -11 48 -43 68 -72z m441 31 c-2 -3 -14 -24 -28 -46 l-25 -40 -3
32 c-4 44 12 73 38 66 12 -3 19 -8 18 -12z m-419 -157 c12 -20 20 -38 18 -41
-7 -6 -47 48 -47 63 0 22 6 17 29 -22z m28 -177 c50 -75 90 -110 149 -130 35
-13 37 -15 19 -24 -50 -26 -85 -26 -120 1 -50 38 -87 91 -101 144 -9 33 -13
39 -13 21 -1 -38 24 -104 54 -144 30 -39 115 -85 158 -85 19 0 27 -4 24 -12
-6 -18 -63 -11 -114 13 -93 45 -181 191 -199 330 l-6 54 52 -50 c29 -27 72
-81 97 -118z m290 11 c-3 -8 -6 -5 -6 6 -1 11 2 17 5 13 3 -3 4 -12 1 -19z
m-146 -44 c25 -3 56 -14 69 -24 l23 -17 -25 -17 c-24 -16 -29 -16 -65 -1 -36
15 -103 71 -103 86 0 4 12 1 28 -7 15 -7 48 -17 73 -20z m199 -8 c0 -3 -4 -8
-10 -11 -5 -3 -10 -1 -10 4 0 6 5 11 10 11 6 0 10 -2 10 -4z m-72 -65 c-9 -24
-92 -81 -116 -80 l-27 1 27 8 c15 4 47 24 70 44 43 37 52 42 46 27z m-12 -127
c-6 -16 -46 -19 -46 -3 0 6 10 25 23 42 l22 32 3 -28 c2 -16 1 -35 -2 -43z"/>
<path d="M1591 4844 c0 -11 3 -14 6 -6 3 7 2 16 -1 19 -3 4 -6 -2 -5 -13z"/>
<path d="M1580 4814 c-1 -5 -7 -35 -14 -66 -8 -32 -11 -58 -6 -58 9 0 34 120
26 128 -3 3 -6 1 -6 -4z"/>
<path d="M1901 4414 c0 -11 3 -14 6 -6 3 7 2 16 -1 19 -3 4 -6 -2 -5 -13z"/>
<path d="M4050 4419 c0 -5 5 -7 10 -4 6 3 10 8 10 11 0 2 -4 4 -10 4 -5 0 -10
-5 -10 -11z"/>
<path d="M4793 4356 c13 -34 61 -100 64 -89 3 7 -10 33 -27 58 -31 44 -47 59
-37 31z"/>
<path d="M1555 4340 c3 -5 8 -10 11 -10 2 0 4 5 4 10 0 6 -5 10 -11 10 -5 0
-7 -4 -4 -10z"/>
<path d="M4060 4309 c0 -13 56 -80 78 -93 10 -6 8 4 -8 30 -39 66 -70 93 -70
63z"/>
<path d="M1520 4210 c-15 -55 -7 -63 9 -9 7 22 10 43 7 46 -2 3 -10 -14 -16
-37z"/>
<path d="M3544 4232 c-5 -4 -25 -26 -43 -50 -26 -33 -37 -60 -47 -120 -16 -91
-17 -102 -6 -102 15 0 59 92 87 183 27 89 28 102 9 89z"/>
<path d="M3660 4199 c0 -37 -20 -135 -46 -221 -11 -36 18 -16 36 25 22 50 36
205 21 227 -8 11 -11 4 -11 -31z"/>
<path d="M4890 4206 c0 -16 63 -126 72 -126 5 0 -5 26 -23 58 -34 60 -49 81
-49 68z"/>
<path d="M3611 4141 c-11 -21 -33 -49 -49 -62 -15 -14 -36 -43 -45 -67 -39
-97 -9 -89 48 12 37 66 77 156 70 156 -3 0 -13 -17 -24 -39z"/>
<path d="M4443 4115 c24 -33 71 -101 105 -150 64 -95 107 -143 118 -132 4 4 1
15 -7 26 -50 70 -166 215 -209 261 l-51 55 44 -60z"/>
<path d="M666 4125 c-3 -8 -1 -15 4 -15 6 0 10 7 10 15 0 8 -2 15 -4 15 -2 0
-6 -7 -10 -15z"/>
<path d="M4062 4127 c-5 -6 -13 -43 -17 -82 -23 -230 -135 -637 -216 -782 -33
-61 -34 -63 -15 -63 35 0 145 157 194 279 19 47 36 87 37 89 16 18 -35 -193
-60 -250 -5 -13 -3 -18 9 -18 14 0 13 -6 -7 -46 -15 -29 -61 -80 -127 -140
-57 -52 -107 -94 -112 -94 -4 0 -8 -4 -8 -10 0 -5 8 -10 19 -10 31 0 159 57
222 99 32 22 59 36 59 31 0 -4 -32 -42 -70 -83 -42 -45 -66 -78 -60 -82 13 -8
13 -8 145 105 107 91 159 144 189 194 26 41 25 40 31 34 3 -3 -11 -29 -31 -59
-20 -30 -40 -64 -45 -76 -5 -13 -14 -21 -21 -18 -17 6 -81 -54 -203 -190 -54
-60 -133 -145 -174 -187 -41 -43 -73 -80 -70 -82 2 -3 56 35 118 85 63 49 116
89 118 89 7 0 -154 -185 -208 -239 -28 -29 -49 -55 -46 -58 9 -8 169 127 250
211 37 39 67 66 67 60 0 -5 -18 -27 -40 -49 -59 -58 -37 -63 28 -5 30 27 57
48 59 46 2 -2 -12 -44 -32 -93 -39 -98 -80 -150 -232 -299 -85 -82 -98 -100
-63 -89 16 5 19 3 13 -11 -8 -22 228 178 289 245 26 28 52 67 59 85 l12 34 19
-23 c21 -27 22 -35 6 -70 -11 -24 -12 -24 -30 -8 -24 22 -34 10 -14 -18 11
-17 13 -27 4 -43 -6 -12 -7 -18 -3 -14 4 4 24 1 44 -7 32 -12 130 -35 149 -35
4 0 -18 15 -48 33 -42 25 -56 40 -58 60 -4 35 25 37 38 2 5 -14 14 -25 19 -25
5 0 27 -19 50 -41 44 -45 71 -47 30 -2 l-24 26 25 -7 c38 -10 239 -44 293 -50
58 -6 63 11 10 41 l-36 21 52 0 c33 1 63 -5 78 -15 38 -25 41 -4 4 26 -25 21
-32 33 -27 48 5 17 -1 23 -41 38 -47 18 -207 149 -351 288 l-62 60 25 31 c55
67 85 121 85 153 0 18 -3 33 -7 33 -4 0 -22 -15 -41 -32 -19 -18 -32 -26 -30
-18 2 8 10 36 18 61 l14 47 50 -41 c28 -22 76 -51 106 -64 30 -14 63 -32 73
-41 13 -12 20 -13 29 -4 9 9 4 22 -22 54 -56 72 -54 69 -36 62 9 -3 28 -3 42
0 l26 7 -21 34 c-11 19 -61 86 -111 149 -49 63 -90 117 -90 121 0 4 18 -9 41
-30 53 -48 124 -92 159 -100 15 -3 36 -15 46 -26 15 -17 44 -26 44 -14 0 2
-25 46 -56 97 -56 93 -168 239 -254 332 -25 27 -40 47 -34 43 5 -3 50 -33 99
-66 49 -34 90 -59 93 -57 2 3 -9 29 -26 58 -16 29 -32 64 -35 78 -6 22 -127
154 -127 138 0 -4 21 -33 48 -65 26 -32 54 -67 62 -77 8 -11 -19 3 -60 31 -41
28 -102 65 -135 83 -92 51 -135 98 -135 149 0 25 -15 35 -28 18z m103 -229
c37 -75 41 -93 24 -103 -20 -13 -47 44 -73 158 -11 47 11 22 49 -55z m90 -14
c28 -18 33 -34 11 -34 -7 0 -21 11 -30 25 -19 29 -15 31 19 9z m-20 -190 c21
-36 30 -63 30 -99 1 -56 32 -130 88 -212 l35 -53 -81 70 c-44 39 -85 69 -91
67 -6 -2 -18 -19 -27 -38 -18 -36 -138 -173 -146 -165 -2 2 19 39 48 83 29 43
65 104 80 135 16 32 37 59 49 63 20 6 20 7 -7 45 -16 22 -39 45 -52 52 -21 11
-23 17 -17 63 3 27 6 61 6 75 l1 25 27 -31 c15 -17 40 -53 57 -80z m-119 -115
c-9 -19 -15 -29 -16 -22 0 15 22 64 27 60 2 -2 -3 -19 -11 -38z m150 -719 l31
-79 -28 15 c-63 32 -66 7 -7 -53 l42 -43 -33 0 c-26 0 -32 -3 -27 -16 5 -12 1
-14 -17 -8 -28 9 -36 21 -38 59 -1 20 -3 23 -6 10 -10 -47 -12 -49 -33 -30
-11 10 -20 23 -20 29 0 14 93 196 100 196 3 0 19 -36 36 -80z m279 -214 l40
-28 -35 7 c-64 13 -78 24 -121 87 l-43 63 60 -51 c32 -28 77 -63 99 -78z m116
-33 c13 -16 12 -17 -3 -4 -17 13 -22 21 -14 21 2 0 10 -8 17 -17z"/>
<path d="M3375 4050 c-21 -22 -36 -40 -31 -40 4 0 13 6 19 13 46 51 60 67 56
67 -3 0 -23 -18 -44 -40z"/>
<path d="M2711 4024 c0 -11 3 -14 6 -6 3 7 2 16 -1 19 -3 4 -6 -2 -5 -13z"/>
<path d="M570 3904 c-12 -32 -13 -185 -1 -164 10 18 25 190 17 190 -4 0 -11
-12 -16 -26z"/>
<path d="M2220 3840 c0 -5 5 -10 10 -10 6 0 10 5 10 10 0 6 -4 10 -10 10 -5 0
-10 -4 -10 -10z"/>
<path d="M3302 3830 c0 -14 2 -19 5 -12 2 6 2 18 0 25 -3 6 -5 1 -5 -13z"/>
<path d="M2831 3780 c0 -8 6 -26 15 -40 l15 -25 -7 25 c-3 14 -10 32 -15 40
-7 13 -8 13 -8 0z"/>
<path d="M2800 3735 c-7 -9 -8 -15 -2 -15 5 0 12 7 16 15 3 8 4 15 2 15 -2 0
-9 -7 -16 -15z"/>
<path d="M451 3625 c-44 -114 -117 -332 -151 -457 -22 -80 -39 -237 -39 -348
l0 -65 23 75 c12 41 39 118 58 170 20 52 42 116 48 143 13 49 30 63 30 25 0
-41 -38 -182 -109 -404 -110 -348 -102 -297 -85 -500 8 -97 18 -182 23 -188 5
-6 16 -66 25 -133 14 -111 50 -270 63 -283 3 -3 2 18 -1 45 -3 28 7 -11 23
-86 24 -115 65 -228 78 -215 2 2 -4 34 -13 72 -26 112 -73 404 -85 531 -9 83
-17 122 -27 130 -14 11 -14 35 -4 205 14 234 34 380 74 558 32 143 86 345 113
420 12 33 14 60 9 100 -4 30 -6 112 -5 183 1 70 0 127 -2 127 -2 0 -23 -47
-46 -105z m-124 -1857 c-3 -7 -5 -2 -5 12 0 14 2 19 5 13 2 -7 2 -19 0 -25z"/>
<path d="M5095 3700 c-3 -5 -4 -14 0 -19 3 -5 1 -29 -4 -53 -6 -24 -13 -58
-16 -77 -3 -19 -10 -41 -16 -50 -8 -12 -9 -10 -4 12 3 15 1 27 -4 27 -10 0
-15 -37 -26 -180 -5 -63 -61 -336 -71 -349 -6 -7 -46 46 -94 124 -51 83 -159
221 -177 229 -26 11 -12 -22 42 -95 58 -81 59 -84 100 -295 13 -72 37 -170 52
-218 24 -79 28 -86 53 -86 14 0 31 5 37 11 9 9 21 6 47 -11 20 -12 36 -27 36
-34 0 -18 -87 -99 -99 -92 -6 4 -19 2 -30 -3 -22 -12 -37 9 -19 27 12 12 -6
42 -25 42 -6 0 -7 -3 -3 -7 3 -4 -17 -31 -46 -61 -46 -47 -51 -55 -37 -65 15
-9 13 -15 -14 -54 -24 -33 -37 -43 -59 -43 -22 0 -33 -9 -53 -40 -14 -23 -34
-44 -43 -47 -9 -3 -63 -28 -120 -55 -57 -28 -114 -51 -128 -52 -13 0 -24 -4
-24 -7 0 -4 -48 -23 -106 -44 -83 -29 -108 -34 -117 -25 -9 9 -9 14 0 17 6 2
41 26 76 52 78 59 190 104 234 95 17 -3 55 -1 86 6 48 10 54 14 50 31 -3 12
-15 24 -27 29 -20 7 -20 8 7 20 15 7 27 16 27 19 0 3 -60 5 -132 3 l-133 -3
-16 29 c-12 21 -33 34 -80 51 -35 13 -72 30 -82 39 -9 8 -19 13 -20 11 -2 -2
-24 -53 -48 -114 -39 -94 -48 -110 -66 -107 -30 4 -37 -14 -14 -34 15 -13 18
-22 10 -36 -11 -20 -2 -23 21 -8 12 8 26 3 79 -27 11 -7 -47 -42 -62 -39 -13
3 -17 0 -13 -10 3 -8 -6 -20 -24 -29 -28 -14 -35 -26 -31 -49 1 -5 -7 -6 -19
-2 -11 3 -29 9 -40 12 -15 5 -23 -3 -41 -39 -12 -25 -19 -51 -16 -59 3 -8 29
-32 57 -52 52 -37 56 -34 17 14 -11 14 4 1 34 -29 30 -30 80 -70 112 -87 l57
-33 -7 27 c-3 15 -14 46 -24 70 -10 23 -14 42 -9 42 25 0 40 -17 61 -70 17
-44 31 -62 52 -71 15 -7 34 -21 42 -32 23 -32 27 -15 15 53 -15 84 -9 104 37
119 21 7 44 15 51 17 7 3 12 -2 12 -11 0 -14 3 -15 15 -5 8 7 15 18 15 25 0
14 152 142 185 156 34 14 72 49 54 49 -13 0 -68 -33 -126 -75 -10 -7 -18 -5
-29 9 -20 28 -19 31 24 74 73 72 214 108 262 67 8 -8 27 -18 43 -24 15 -6 27
-15 27 -21 0 -6 -4 -8 -10 -5 -18 11 -11 -7 29 -69 21 -34 41 -77 44 -96 3
-19 11 -55 17 -80 6 -25 17 -80 25 -124 7 -43 16 -81 19 -84 9 -9 8 6 -19 178
-14 89 -23 171 -20 182 4 10 1 26 -7 35 -11 15 -11 16 5 10 23 -9 22 15 -2 30
-24 15 -33 59 -14 75 22 18 45 68 39 85 -11 27 13 51 66 67 48 14 53 14 64 -2
18 -24 26 -10 14 24 -11 27 -10 27 8 11 22 -20 34 -21 49 -6 8 8 -4 19 -47 40
-90 45 -91 51 -29 106 29 27 58 47 64 46 5 -1 42 -15 82 -31 39 -17 104 -40
145 -51 88 -25 295 -61 348 -61 48 0 70 -8 70 -26 0 -9 -12 -14 -36 -14 -20 0
-64 -7 -98 -17 -86 -23 -351 -24 -419 -1 -57 19 -50 1 11 -28 35 -16 213 -36
315 -34 78 2 297 90 297 120 0 6 -23 10 -51 10 -117 0 -659 141 -647 168 2 4
17 37 35 73 54 109 65 167 70 354 5 198 -5 263 -84 502 -45 137 -54 155 -68
133z m82 -291 c25 -112 25 -428 -1 -529 -22 -88 -82 -210 -103 -210 -9 0 -37
12 -64 26 -39 22 -50 33 -55 60 -3 18 -3 42 1 54 4 11 9 37 11 56 4 32 17 72
104 318 17 50 41 140 53 202 12 62 25 109 30 105 4 -4 15 -41 24 -82z m-247
-450 c-22 -41 -35 -22 -55 81 l-7 35 36 -49 c28 -38 33 -53 26 -67z m1 -70
c-9 -22 -10 -22 -10 -3 -1 11 2 24 6 27 12 12 14 0 4 -24z m-11 -469 c0 -11
-7 -20 -15 -20 -17 0 -18 2 -9 24 9 23 24 20 24 -4z m-590 -420 c-14 -11 -38
-24 -53 -29 -24 -9 -28 -8 -25 6 2 9 19 22 38 29 53 19 69 17 40 -6z m-122
-39 c10 -6 8 -10 -10 -14 -38 -11 -65 -8 -78 8 -11 13 -6 15 31 15 24 0 50 -4
57 -9z m16 -97 c3 -9 6 -25 6 -36 0 -21 0 -21 -21 -2 -11 10 -25 27 -30 36 -8
15 -6 18 15 18 13 0 27 -7 30 -16z"/>
<path d="M566 3674 c-3 -9 -6 -46 -5 -82 1 -65 1 -66 14 -37 8 17 14 54 13 83
-1 51 -10 67 -22 36z"/>
<path d="M3629 3553 c-13 -16 -12 -17 4 -4 9 7 17 15 17 17 0 8 -8 3 -21 -13z"/>
<path d="M2345 3550 c3 -5 8 -10 11 -10 2 0 4 5 4 10 0 6 -5 10 -11 10 -5 0
-7 -4 -4 -10z"/>
<path d="M322 3465 c-34 -80 -37 -96 -33 -195 l3 -65 18 100 c9 55 25 129 34
164 10 35 16 65 14 67 -2 2 -18 -30 -36 -71z"/>
<path d="M1371 3453 c-1 -17 4 -35 9 -38 12 -7 12 22 0 50 -7 17 -9 15 -9 -12z"/>
<path d="M2245 3343 c26 -48 73 -126 105 -173 31 -47 90 -146 130 -220 40 -73
77 -142 84 -152 11 -18 36 -25 36 -10 0 5 -66 114 -146 243 -81 129 -169 271
-196 317 -28 45 -52 82 -55 82 -3 0 16 -39 42 -87z"/>
<path d="M2310 3417 c0 -8 78 -126 93 -142 6 -5 -4 17 -22 50 -31 56 -71 108
-71 92z"/>
<path d="M1330 3349 c0 -16 4 -28 9 -25 8 5 3 56 -5 56 -2 0 -4 -14 -4 -31z"/>
<path d="M1330 3215 c0 -16 6 -25 16 -25 11 0 14 5 10 16 -3 9 -6 20 -6 25 0
5 -4 9 -10 9 -5 0 -10 -11 -10 -25z"/>
<path d="M2103 3028 c-5 -18 -7 -60 -5 -94 l4 -61 49 -15 49 -16 -6 26 c-3 15
-10 41 -16 59 -5 18 -8 40 -7 50 3 26 -17 69 -36 77 -24 9 -23 9 -32 -26z"/>
<path d="M2335 3030 c3 -14 13 -68 22 -120 15 -90 26 -120 38 -108 8 8 -30
177 -49 218 -11 24 -14 27 -11 10z"/>
<path d="M4610 3006 c0 -2 8 -10 18 -17 15 -13 16 -12 3 4 -13 16 -21 21 -21
13z"/>
<path d="M567 2990 c-9 -20 -43 -170 -56 -245 -34 -189 -61 -497 -61 -685 0
-123 23 -418 41 -513 13 -74 31 -121 24 -62 -35 287 -30 899 9 1050 9 32 16
80 16 105 0 39 32 235 45 280 6 22 -11 88 -18 70z"/>
<path d="M593 2793 c3 -62 10 -120 16 -130 9 -16 10 -14 11 10 0 15 5 27 10
27 6 0 10 -7 10 -14 0 -33 51 -174 65 -180 21 -8 19 3 -10 67 -14 31 -41 115
-59 187 -19 72 -37 134 -41 138 -4 4 -5 -43 -2 -105z"/>
<path d="M1391 2842 c-1 -19 -5 -21 -26 -16 -20 5 -24 3 -19 -10 3 -9 17 -19
30 -22 29 -8 30 -14 3 -48 -12 -15 -19 -29 -16 -32 10 -11 47 22 46 41 -1 36
-16 111 -18 87z"/>
<path d="M2131 2781 c23 -62 23 -85 0 -176 l-17 -69 -16 39 c-9 22 -19 59 -23
83 -7 43 -18 54 -28 27 -6 -15 22 -127 47 -187 25 -59 20 -82 -41 -176 -59
-89 -98 -168 -126 -256 -22 -68 -11 -76 25 -21 16 25 41 54 54 64 13 10 24 25
24 33 0 8 20 43 45 79 57 81 91 178 77 218 -10 28 3 125 31 241 l14 55 31 -65
c39 -83 42 -52 5 57 -25 75 -29 82 -58 86 -16 2 -38 7 -47 11 -15 7 -15 3 3
-43z"/>
<path d="M2377 2752 c-2 -11 -3 -39 -2 -63 7 -112 -43 -268 -138 -427 -34 -58
-61 -109 -59 -114 1 -5 -22 -33 -51 -62 -52 -52 -140 -106 -172 -106 -24 0
-17 -19 10 -26 30 -8 117 31 167 75 36 31 37 31 51 11 13 -19 14 -18 25 18 7
20 17 60 22 87 17 81 40 143 56 149 37 14 124 273 124 370 0 33 2 37 15 26 8
-7 12 -16 9 -21 -9 -15 24 -114 48 -144 18 -23 19 -27 6 -22 -38 14 -23 -13
47 -88 70 -75 78 -94 40 -95 -14 0 -126 58 -146 76 -39 35 -39 7 1 -32 16 -16
30 -34 30 -41 0 -16 270 -163 301 -163 6 0 0 19 -13 42 -18 34 -33 46 -76 63
-62 24 -67 35 -12 28 30 -4 40 -2 40 8 -1 25 -54 107 -110 170 -53 60 -53 61
-20 44 19 -10 47 -26 63 -37 48 -34 29 -3 -53 85 -44 47 -80 89 -81 94 0 4
-22 25 -50 46 -27 20 -49 44 -49 52 0 21 -17 19 -23 -3z"/>
<path d="M2440 2766 c0 -3 24 -21 53 -40 29 -19 59 -41 66 -50 26 -31 29 -15
8 34 -21 46 -24 50 -59 50 -20 0 -43 3 -52 6 -9 3 -16 3 -16 0z"/>
<path d="M2590 2765 c0 -14 30 -62 48 -79 37 -32 43 -8 10 39 -27 38 -58 59
-58 40z"/>
<path d="M1257 2734 c-14 -27 -15 -40 -5 -93 10 -51 9 -63 -4 -78 -18 -22 -69
-115 -65 -119 1 -2 24 15 50 37 48 41 73 43 63 5 -10 -40 150 -659 185 -715 8
-14 9 -13 5 4 -3 11 -27 110 -55 220 -66 265 -125 570 -117 608 4 21 1 33 -10
41 -9 7 -19 35 -23 66 l-7 55 -17 -31z"/>
<path d="M2622 2650 c0 -14 4 -38 8 -55 7 -27 8 -27 8 -5 0 14 -4 39 -8 55 -7
27 -8 27 -8 5z"/>
<path d="M4850 2655 c0 -3 7 -14 16 -23 15 -14 16 -14 13 3 -4 17 -29 35 -29
20z"/>
<path d="M4041 2533 c-13 -27 -13 -28 8 -9 11 10 18 23 15 27 -8 13 -10 12
-23 -18z"/>
<path d="M2650 2521 c0 -6 4 -13 10 -16 6 -3 7 1 4 9 -7 18 -14 21 -14 7z"/>
<path d="M3980 2441 c0 -5 -16 -32 -35 -61 -37 -56 -42 -65 -24 -54 7 4 -42
-46 -107 -110 -65 -64 -122 -116 -126 -116 -19 0 -4 26 47 79 l55 58 -67 -21
c-52 -17 -78 -32 -120 -73 -48 -47 -69 -59 -97 -54 -4 1 -14 -4 -22 -10 -27
-22 -14 8 16 36 17 16 30 34 30 39 0 6 12 12 26 13 15 0 34 8 42 17 15 15 14
16 -15 16 -36 0 -72 -30 -123 -102 -48 -69 -73 -63 -85 17 -10 73 -27 105 -77
151 -44 40 -132 83 -145 70 -4 -4 11 -21 33 -39 80 -64 155 -141 160 -164 8
-31 -10 -51 -41 -45 l-25 4 29 -62 c26 -57 31 -63 60 -64 17 -1 31 0 31 2 0 2
-12 19 -26 37 -49 65 2 64 62 -1 12 -12 39 -26 60 -30 22 -3 44 -11 50 -15 6
-5 31 -12 56 -15 43 -6 45 -5 58 25 7 19 34 46 64 66 28 19 61 44 73 57 42 46
202 318 203 346 0 6 -4 12 -10 12 -5 0 -10 -4 -10 -9z"/>
<path d="M752 2369 c-18 -24 -46 -65 -63 -91 -19 -28 -48 -55 -75 -70 -24 -12
-44 -26 -44 -30 0 -3 43 -52 96 -107 151 -159 176 -158 52 1 -41 53 -65 93
-62 102 3 8 20 24 38 34 18 11 46 40 63 65 l31 47 27 -36 c35 -46 42 -38 14
17 -12 24 -27 59 -33 78 l-12 34 -32 -44z"/>
<path d="M2753 2372 c10 -10 15 -21 12 -24 -3 -2 2 -5 10 -5 12 0 10 6 -7 24
-25 27 -39 32 -15 5z"/>
<path d="M2321 2322 c-22 -32 -26 -42 -13 -42 9 0 44 61 38 67 -2 2 -13 -9
-25 -25z"/>
<path d="M2810 2317 c0 -5 188 -169 208 -181 12 -7 42 9 42 23 0 11 -70 42
-81 35 -5 -3 -40 21 -77 54 -67 58 -92 77 -92 69z"/>
<path d="M3815 2300 c-10 -11 -14 -20 -8 -20 5 0 18 9 28 20 10 11 14 20 8 20
-5 0 -18 -9 -28 -20z"/>
<path d="M3709 2283 c-13 -16 -12 -17 4 -4 16 13 21 21 13 21 -2 0 -10 -8 -17
-17z"/>
<path d="M2582 2175 c6 -14 29 -39 51 -55 37 -27 38 -28 15 -35 -13 -4 -33
-18 -45 -31 -12 -13 -33 -24 -46 -24 -27 0 -95 -26 -201 -76 -39 -18 -73 -31
-77 -29 -3 3 -4 23 -2 46 4 29 2 39 -6 35 -6 -4 -11 -21 -11 -39 0 -17 -14
-112 -31 -210 -27 -154 -30 -192 -24 -273 4 -52 11 -94 15 -94 4 0 11 52 15
116 l8 116 89 -7 c85 -7 91 -6 115 16 23 22 25 22 19 4 -7 -20 -25 -144 -26
-179 0 -26 24 -5 40 35 11 25 10 32 -4 48 -16 18 -15 24 30 112 25 52 55 106
65 120 18 26 18 26 -7 38 -14 6 -26 11 -28 11 -2 0 -14 -27 -26 -60 l-22 -60
-52 0 c-28 0 -80 -5 -115 -10 -35 -6 -66 -9 -68 -6 -2 2 -1 23 4 47 9 48 4 46
157 80 94 21 98 23 78 37 -13 8 -22 25 -22 39 0 23 -2 24 -45 17 -60 -9 -59 9
4 41 52 26 281 88 369 100 l52 7 -25 30 c-14 16 -22 35 -19 40 4 6 2 8 -4 4
-5 -3 -12 0 -15 6 -3 10 -13 9 -41 -5 l-38 -18 -63 46 c-35 25 -66 45 -69 45
-3 0 0 -11 6 -25z"/>
<path d="M4935 2180 c10 -11 20 -20 23 -20 3 0 -3 9 -13 20 -10 11 -20 20 -23
20 -3 0 3 -9 13 -20z"/>
<path d="M5366 2179 c2 -4 21 -9 41 -13 21 -3 61 -17 88 -31 64 -31 74 -31 44
2 -26 28 -13 23 36 -13 17 -13 62 -36 100 -53 l70 -31 -68 64 c-68 63 -68 64
-43 72 17 6 -26 9 -123 9 -82 0 -147 -3 -145 -6z"/>
<path d="M3937 2162 c-22 -24 -22 -35 1 -23 11 6 24 6 36 -1 24 -14 28 -6 10
20 -18 27 -26 27 -47 4z"/>
<path d="M3069 2096 c19 -23 51 -40 51 -27 0 6 -15 18 -32 27 -31 16 -32 16
-19 0z"/>
<path d="M5246 2067 c3 -10 9 -15 12 -12 3 3 0 11 -7 18 -10 9 -11 8 -5 -6z"/>
<path d="M3152 2034 c10 -10 20 -16 22 -13 3 3 -5 11 -17 18 -21 13 -21 12 -5
-5z"/>
<path d="M506 1998 c-17 -103 14 -469 51 -612 46 -178 89 -262 175 -341 66
-62 81 -73 121 -90 41 -17 52 -5 12 13 -72 33 -193 186 -234 297 -52 138 -70
246 -96 575 -9 107 -17 196 -19 197 -2 2 -6 -16 -10 -39z"/>
<path d="M2880 2036 c0 -2 8 -10 18 -17 15 -13 16 -12 3 4 -13 16 -21 21 -21
13z"/>
<path d="M2924 2001 c7 -11 46 -35 46 -28 0 3 -12 12 -26 22 -15 9 -23 12 -20
6z"/>
<path d="M3230 2000 c8 -5 20 -10 25 -10 6 0 3 5 -5 10 -8 5 -19 10 -25 10 -5
0 -3 -5 5 -10z"/>
<path d="M2981 1966 c2 -2 15 -9 29 -15 24 -11 24 -11 6 3 -16 13 -49 24 -35
12z"/>
<path d="M820 1910 c12 -16 29 -35 39 -42 10 -7 21 -29 25 -48 19 -106 19
-109 -3 -145 -11 -20 -21 -42 -21 -49 0 -21 74 -100 114 -121 28 -15 34 -24
30 -41 -3 -12 10 -58 30 -109 33 -81 86 -286 86 -332 0 -10 6 -25 12 -31 10
-10 10 -17 0 -32 -10 -17 -8 -22 14 -37 21 -13 48 -17 123 -16 108 0 181 16
319 69 80 32 92 39 92 60 0 17 7 25 25 30 30 7 29 5 8 48 -15 33 -39 42 -26
10 3 -8 -3 -21 -13 -29 -32 -25 -177 -96 -183 -90 -3 4 1 10 9 16 20 13 -27 2
-100 -23 -30 -10 -83 -22 -117 -25 -58 -5 -63 -4 -87 22 -31 33 -50 97 -42
138 7 34 -37 174 -84 266 -16 33 -30 63 -30 66 0 3 11 3 25 -1 14 -3 25 -2 25
2 0 5 -41 47 -91 94 -87 82 -90 86 -80 113 28 73 7 151 -58 220 -50 53 -73 63
-41 17z"/>
<path d="M3461 1886 c13 -27 18 -30 43 -20 21 8 20 20 -1 27 -10 2 -26 8 -36
12 -16 7 -16 5 -6 -19z"/>
<path d="M3711 1871 c-10 -6 -11 -14 -3 -26 9 -17 10 -16 17 4 8 27 4 33 -14
22z"/>
<path d="M1564 1806 c8 -101 46 -266 63 -266 17 0 18 -11 -17 157 -35 170 -53
212 -46 109z"/>
<path d="M3947 1849 c7 -7 15 -10 18 -7 3 3 -2 9 -12 12 -14 6 -15 5 -6 -5z"/>
<path d="M5066 1839 c3 -13 10 -38 15 -54 18 -60 36 -242 33 -330 -5 -152 -21
-240 -56 -308 l-21 -42 21 19 c12 10 33 49 48 88 15 38 38 83 51 100 13 18 23
46 23 62 l-1 31 -13 -25 c-13 -22 -15 -14 -18 90 -5 124 -49 354 -73 379 -12
12 -13 11 -9 -10z"/>
<path d="M3731 1786 c-12 -18 -21 -50 -21 -71 0 -37 0 -37 23 -22 16 11 21 23
19 47 -1 19 2 29 8 25 5 -3 10 -14 11 -23 0 -14 2 -13 8 3 9 21 -5 75 -19 75
-5 0 -18 -15 -29 -34z"/>
<path d="M4015 1779 c6 -28 5 -31 -12 -27 -27 7 61 -80 94 -93 l24 -9 -7 57
c-7 56 -6 57 12 43 19 -14 19 -14 0 8 -28 32 -43 28 -39 -10 3 -25 2 -30 -6
-18 -6 8 -11 22 -11 31 0 15 -39 49 -55 49 -4 0 -3 -14 0 -31z"/>
<path d="M1359 1777 c14 -18 51 -42 51 -33 0 3 -15 15 -32 27 -24 17 -29 18
-19 6z"/>
<path d="M3875 1713 c30 -53 45 -72 45 -58 0 20 -42 94 -56 99 -12 4 -8 -7 11
-41z"/>
<path d="M3949 1695 c12 -16 32 -46 45 -65 26 -40 242 -250 257 -250 9 0 1 16
-46 95 -30 49 -33 77 -5 44 26 -32 27 -5 1 37 -18 30 -75 63 -88 50 -7 -6 6
-35 34 -76 16 -24 -16 4 -156 135 -35 33 -54 47 -42 30z"/>
<path d="M4952 1658 c-1 -29 -6 -78 -11 -108 -6 -30 -13 -83 -16 -118 -4 -34
-18 -84 -31 -109 -29 -58 -22 -69 16 -23 38 46 54 79 80 170 35 121 39 143 31
180 l-7 35 -7 -50 c-8 -62 -26 -125 -35 -125 -4 0 -5 45 -4 100 2 55 0 100 -5
100 -5 0 -10 -24 -11 -52z"/>
<path d="M5585 1700 c-3 -6 1 -7 9 -4 18 7 21 14 7 14 -6 0 -13 -4 -16 -10z"/>
<path d="M2015 1569 c-81 -161 -127 -229 -201 -298 -73 -68 -71 -81 3 -23 56
45 103 97 140 155 35 55 97 182 113 230 24 75 0 48 -55 -64z"/>
<path d="M3111 1577 c-17 -29 -48 -74 -69 -98 -42 -48 -104 -141 -123 -182
-19 -41 -32 -33 -24 15 7 38 6 41 -8 29 -9 -7 -23 -36 -31 -66 -9 -29 -22 -57
-29 -63 -11 -10 -16 14 -26 131 -15 174 -15 171 -42 157 -20 -11 -20 -18 -17
-193 3 -174 2 -184 -21 -235 -13 -29 -21 -56 -17 -59 4 -4 20 1 35 10 37 22
41 21 41 -3 0 -35 21 -120 30 -120 5 0 7 29 3 64 -6 62 -5 64 22 77 21 10 48
50 100 145 62 113 122 193 148 194 4 0 7 -15 7 -32 0 -48 12 -63 33 -40 12 14
17 43 19 132 1 63 -1 121 -5 127 -4 7 -3 22 3 34 7 11 9 23 7 25 -3 3 -19 -19
-36 -49z m-183 -341 c-29 -58 -56 -106 -59 -106 -4 0 -3 15 1 34 8 35 99 190
107 183 2 -3 -20 -52 -49 -111z"/>
<path d="M3320 1578 c0 -13 -3 -41 -7 -63 -6 -37 -5 -39 10 -26 23 19 22 -2
-1 -23 -16 -13 -20 -38 -26 -134 -8 -147 -26 -294 -37 -306 -14 -15 -39 58
-40 116 -1 29 -4 42 -6 28 -3 -14 -8 -27 -13 -30 -4 -3 -10 -33 -12 -67 -5
-49 -2 -67 13 -92 10 -17 19 -41 19 -52 0 -31 19 -13 45 44 32 72 48 135 41
169 -3 15 -2 28 3 28 10 0 34 125 51 260 6 47 12 94 15 106 3 14 -4 27 -25 43
l-30 22 0 -23z"/>
<path d="M3995 1525 c14 -38 52 -115 84 -170 32 -55 97 -176 144 -270 l85
-170 24 -150 c13 -82 25 -139 26 -125 5 33 -16 202 -35 275 -15 62 -116 269
-248 510 -91 167 -118 200 -80 100z"/>
<path d="M5220 1517 c-14 -31 -20 -62 -18 -90 l4 -42 17 38 c9 20 19 37 21 37
2 0 18 -56 36 -125 19 -70 37 -122 43 -118 12 7 3 60 -29 169 -15 49 -33 109
-39 134 l-13 45 -22 -48z"/>
<path d="M2591 1485 c-98 -88 -170 -167 -171 -185 0 -8 57 43 127 112 137 137
162 179 44 73z"/>
<path d="M1636 1454 c4 -14 15 -47 26 -72 l19 -47 -7 49 c-3 27 -10 60 -15 73
-12 32 -31 30 -23 -3z"/>
<path d="M3490 1454 c0 -8 5 -12 10 -9 6 4 8 11 5 16 -9 14 -15 11 -15 -7z"/>
<path d="M4270 1453 c0 -16 82 -103 91 -97 5 3 -10 27 -33 55 -38 45 -58 60
-58 42z"/>
<path d="M5341 1394 c0 -11 3 -14 6 -6 3 7 2 16 -1 19 -3 4 -6 -2 -5 -13z"/>
<path d="M2176 1348 c2 -24 6 -87 10 -141 4 -67 10 -97 17 -94 13 4 13 9 1
160 -4 56 -12 101 -19 107 -10 8 -12 1 -9 -32z"/>
<path d="M1616 1350 c12 -67 49 -172 59 -168 13 4 12 8 -30 113 -20 50 -33 74
-29 55z"/>
<path d="M5351 1344 c0 -11 3 -14 6 -6 3 7 2 16 -1 19 -3 4 -6 -2 -5 -13z"/>
<path d="M4220 1322 c0 -11 63 -144 115 -242 23 -44 34 -79 34 -108 1 -28 9
-55 22 -74 12 -16 18 -32 14 -36 -4 -4 -13 2 -21 12 -13 19 -14 19 -14 -5 0
-23 172 -314 205 -348 33 -34 23 1 -18 60 -63 92 -90 139 -80 139 5 0 32 -19
61 -42 28 -24 72 -58 97 -76 l45 -33 55 43 c64 50 61 61 -27 85 -53 15 -65 23
-104 74 -46 60 -197 297 -232 364 -11 22 -28 49 -37 60 -15 19 -16 18 -11 -25
7 -55 -2 -37 -24 49 -12 50 -23 69 -48 89 -18 13 -32 20 -32 14z m288 -506
c38 -42 31 -46 -21 -10 -26 17 -46 43 -62 81 -36 79 -31 87 13 21 21 -31 52
-73 70 -92z"/>
<path d="M3186 1290 c3 -14 9 -38 14 -55 7 -28 8 -28 9 -5 0 14 -6 39 -15 55
-12 26 -13 26 -8 5z"/>
<path d="M3117 1277 c-18 -12 -18 -16 -2 -77 40 -159 54 -171 42 -37 -11 118
-16 132 -40 114z"/>
<path d="M2020 1240 c-25 -10 -83 -32 -130 -49 -47 -18 -94 -39 -105 -47 -20
-15 -20 -16 10 -71 33 -61 60 -83 50 -40 -6 23 -2 27 64 52 63 24 71 30 71 53
0 55 15 7 21 -70 6 -65 12 -85 29 -102 l22 -21 -6 60 c-10 89 9 56 27 -46 11
-70 22 -99 61 -163 26 -42 83 -145 128 -229 45 -84 91 -163 103 -177 13 -14
25 -43 29 -66 l6 -40 -124 -85 c-69 -46 -122 -87 -118 -90 12 -12 225 -57 372
-80 210 -33 610 -33 820 0 330 51 579 127 874 269 l140 67 -55 5 -54 5 -23 75
c-35 113 -57 164 -98 225 -36 55 -99 113 -110 102 -3 -3 19 -52 49 -109 58
-108 122 -274 109 -282 -5 -3 -127 0 -273 5 -279 10 -285 11 -799 115 -41 8
-110 22 -153 30 l-78 15 -43 -39 c-45 -41 -91 -58 -126 -47 -14 5 -36 -6 -77
-38 -63 -48 -114 -77 -136 -77 -53 0 -190 245 -245 437 -20 69 -41 118 -65
150 -30 41 -37 63 -52 153 -14 84 -23 111 -44 137 l-26 31 -45 -18z m39 -44
c-2 -2 -15 -7 -29 -10 l-25 -7 25 15 c21 12 42 14 29 2z m21 -103 c0 -22 -2
-25 -10 -13 -13 20 -13 40 0 40 6 0 10 -12 10 -27z"/>
<path d="M4369 1213 c5 -10 24 -34 41 -53 l31 -35 -32 53 c-17 28 -35 52 -40
52 -6 0 -6 -7 0 -17z"/>
<path d="M4500 1186 c0 -2 8 -10 18 -17 15 -13 16 -12 3 4 -13 16 -21 21 -21
13z"/>
<path d="M4540 1136 c0 -2 8 -10 18 -17 15 -13 16 -12 3 4 -13 16 -21 21 -21
13z"/>
<path d="M2206 1091 c-4 -6 -4 -41 0 -78 6 -62 8 -64 20 -42 19 35 -1 152 -20
120z"/>
<path d="M3559 1083 c-13 -16 -12 -17 4 -4 16 13 21 21 13 21 -2 0 -10 -8 -17
-17z"/>
<path d="M2808 875 c-3 -6 -3 -26 1 -45 4 -19 9 -30 12 -25 7 14 -5 82 -13 70z"/>
<path d="M3781 854 c0 -11 3 -14 6 -6 3 7 2 16 -1 19 -3 4 -6 -2 -5 -13z"/>
<path d="M1961 503 c-10 -26 -10 -27 4 -9 8 11 15 23 15 28 0 15 -7 8 -19 -19z"/>
<path d="M1759 403 c-13 -16 -12 -17 4 -4 16 13 21 21 13 21 -2 0 -10 -8 -17
-17z"/>
</g>
</svg>
